<svg width="945" height="333" viewBox="0 0 945 333" fill="none" xmlns="http://www.w3.org/2000/svg">
<path d="M915.044 39.5438H877.026V91.7138H915.044V39.5438Z" fill="#DFDFDF"/>
<path d="M915.044 39.5438H877.026V43.1513H915.044V39.5438Z" fill="#F3F3F3"/>
<path d="M729.812 60.2175H637.127V89.91H729.812V60.2175Z" fill="#F3F3F3"/>
<path d="M652.251 84.4987C657.615 84.4987 661.964 80.1503 661.964 74.7862C661.964 69.4222 657.615 65.0737 652.251 65.0737C646.887 65.0737 642.539 69.4222 642.539 74.7862C642.539 80.1503 646.887 84.4987 652.251 84.4987Z" fill="#DFDFDF"/>
<path d="M723.014 65.6288H668.624V68.9588H723.014V65.6288Z" fill="#DFDFDF"/>
<path d="M686.939 73.3988H668.624V76.7288H686.939V73.3988Z" fill="#DFDFDF"/>
<path d="M658.742 70.879L650.725 78.896L647.409 75.5771" stroke="#F3F3F3" stroke-width="6" stroke-miterlimit="10"/>
<path d="M729.812 96.5701H637.127V126.263H729.812V96.5701Z" fill="#F3F3F3"/>
<path d="M652.251 120.851C657.615 120.851 661.964 116.503 661.964 111.139C661.964 105.775 657.615 101.426 652.251 101.426C646.887 101.426 642.539 105.775 642.539 111.139C642.539 116.503 646.887 120.851 652.251 120.851Z" fill="#DFDFDF"/>
<path d="M723.014 101.981H668.624V105.311H723.014V101.981Z" fill="#DFDFDF"/>
<path d="M686.939 109.751H668.624V113.081H686.939V109.751Z" fill="#DFDFDF"/>
<path d="M658.742 107.232L650.725 115.249L647.409 111.93" stroke="#F3F3F3" stroke-width="6" stroke-miterlimit="10"/>
<path d="M729.812 132.922H637.127V162.615H729.812V132.922Z" fill="#F3F3F3"/>
<path d="M652.251 157.204C657.615 157.204 661.964 152.855 661.964 147.491C661.964 142.127 657.615 137.779 652.251 137.779C646.887 137.779 642.539 142.127 642.539 147.491C642.539 152.855 646.887 157.204 652.251 157.204Z" fill="#DFDFDF"/>
<path d="M723.014 138.334H668.624V141.664H723.014V138.334Z" fill="#DFDFDF"/>
<path d="M686.939 146.104H668.624V149.434H686.939V146.104Z" fill="#DFDFDF"/>
<path d="M658.742 143.584L650.725 151.598L647.409 148.282" stroke="#F3F3F3" stroke-width="6" stroke-miterlimit="10"/>
<path d="M907.551 48.1462H869.534V100.316H907.551V48.1462Z" fill="#F3F3F3"/>
<path d="M907.551 48.1462H869.534V51.7537H907.551V48.1462Z" fill="#DFDFDF"/>
<path d="M903.666 58.1362H873.696V60.6337H903.666V58.1362Z" fill="#DFDFDF"/>
<path d="M903.666 63.1312H873.696V65.6287H903.666V63.1312Z" fill="#DFDFDF"/>
<path d="M903.666 68.1262H873.696V70.6237H903.666V68.1262Z" fill="#DFDFDF"/>
<path d="M806.819 119.186C806.819 116.411 811.814 111.971 820.416 111.971C830.961 111.971 845.391 134.449 861.486 134.449C872.586 134.449 887.849 125.291 887.849 108.641" stroke="#DFDFDF" stroke-width="11" stroke-miterlimit="10" stroke-dasharray="22 22"/>
<path d="M723.985 146.242C723.43 148.185 714.55 195.082 729.812 238.65C732.31 239.205 732.032 232.267 732.032 232.267L729.257 172.605L730.645 150.127L723.985 146.242Z" fill="#DE8E68"/>
<path d="M765.61 320.79H738.693C738.693 320.79 729.535 226.162 729.535 224.22C731.2 225.885 730.923 226.44 737.86 228.382C742.023 232.822 771.438 306.637 771.438 306.637L765.61 320.79Z" fill="#56CAD8"/>
<path d="M752.237 111C765.205 114.71 754.965 154.32 750.164 157.639C745.363 160.958 722.858 151.618 721.043 147.416C719.229 143.215 733.878 105.747 752.237 111Z" fill="#FCC486"/>
<path d="M763.945 100.455C805.292 100.455 806.125 219.225 800.297 224.22C794.47 229.215 734.807 233.932 729.535 224.22C724.262 214.507 718.99 100.455 763.945 100.455Z" fill="#FED385"/>
<path d="M778.93 108.502C789.752 100.455 815.005 132.645 814.727 138.472C814.45 144.3 793.36 156.51 788.92 155.4C784.48 154.29 763.606 119.897 778.93 108.502Z" fill="#FED892"/>
<path d="M810.843 139.583C821.11 156.51 823.885 178.987 823.885 182.872C823.885 193.417 818.613 198.69 815.283 198.69C801.963 198.69 758.118 164.835 755.065 162.06C752.013 159.285 760.893 150.96 762.28 152.348C763.668 153.735 779.485 163.725 802.518 173.715C799.188 169.552 789.475 157.065 789.198 153.18C788.92 149.295 810.843 139.583 810.843 139.583Z" fill="#DE8E68"/>
<path d="M749.091 131.478L731.755 134.094L736.239 163.811L753.575 161.195L749.091 131.478Z" fill="#333333"/>
<path d="M761.719 158.661C763.788 155.077 761.43 149.843 756.453 146.969C751.476 144.095 745.763 144.671 743.694 148.255C741.625 151.838 743.983 157.073 748.96 159.946C753.938 162.82 759.65 162.244 761.719 158.661Z" fill="#DE8E68"/>
<path d="M771.16 105.727C771.16 109.335 756.73 109.612 756.73 105.727V83.8049H771.16V105.727Z" fill="#D37C59"/>
<path d="M760.199 96.8475C768.091 96.8475 774.49 85.4795 774.49 71.4563C774.49 57.4331 768.091 46.065 760.199 46.065C752.306 46.065 745.907 57.4331 745.907 71.4563C745.907 85.4795 752.306 96.8475 760.199 96.8475Z" fill="#DE8E68"/>
<path d="M773.519 78.81C775.588 78.81 777.265 77.1327 777.265 75.0637C777.265 72.9948 775.588 71.3175 773.519 71.3175C771.45 71.3175 769.772 72.9948 769.772 75.0637C769.772 77.1327 771.45 78.81 773.519 78.81Z" fill="#DE8E68"/>
<path d="M822.22 42.4575C811.397 42.4575 802.517 50.2275 790.862 50.2275C782.537 50.2275 774.49 40.2375 762.835 40.2375C747.85 40.2375 743.132 48.285 743.132 53.835C743.132 58.275 745.907 63.27 746.74 63.27C746.74 61.8825 748.405 56.8875 748.96 56.3325C749.515 58.275 761.17 71.8725 771.437 71.8725V71.9502C772.001 71.5728 772.657 71.3557 773.335 71.3221C774.013 71.2885 774.687 71.4396 775.286 71.7593C775.884 72.079 776.385 72.5553 776.734 73.1373C777.083 73.7193 777.267 74.3851 777.267 75.0637C777.267 75.7423 777.083 76.4082 776.734 76.9902C776.385 77.5722 775.884 78.0485 775.286 78.3682C774.687 78.6879 774.013 78.839 773.335 78.8054C772.657 78.7718 772.001 78.5547 771.437 78.1773V86.3025H774.212C777.82 86.3025 779.485 84.915 785.035 84.915C794.747 84.915 808.345 96.8475 824.995 96.8475C843.032 96.8475 850.525 83.25 850.525 67.9875C850.525 47.73 831.377 42.4575 822.22 42.4575Z" fill="black"/>
<path d="M800.297 224.22V320.79H765.61L737.827 228.319C747.572 230.047 784.48 231.435 800.297 224.22Z" fill="#74D5DE"/>
</svg>
