<svg width="37" height="37" viewBox="0 0 37 37" fill="none" xmlns="http://www.w3.org/2000/svg">
<g filter="url(#filter0_d)">
<circle cx="18.5" cy="16.5" r="12.5" fill="#FFA370"/>
<path d="M18.125 13.6055C18.6719 13.6055 19.1914 13.7695 19.6836 14.043C20.1758 14.3164 20.5586 14.6992 20.832 15.1914C21.1055 15.6836 21.2695 16.2031 21.2695 16.75C21.2695 17.3242 21.1055 17.8438 20.832 18.3359C20.5586 18.8281 20.1758 19.2109 19.6836 19.4844C19.1914 19.7578 18.6719 19.8945 18.125 19.8945C17.5508 19.8945 17.0312 19.7578 16.5391 19.4844C16.0469 19.2109 15.6641 18.8281 15.3906 18.3359C15.1172 17.8438 14.9805 17.3242 14.9805 16.75C14.9805 16.2031 15.1172 15.6836 15.3906 15.1914C15.6641 14.6992 16.0469 14.3164 16.5391 14.043C17.0312 13.7695 17.5508 13.6055 18.125 13.6055ZM18.125 18.8008C18.6719 18.8008 19.1641 18.6094 19.5742 18.1992C19.957 17.8164 20.1758 17.3242 20.1758 16.75C20.1758 16.2031 19.957 15.7109 19.5742 15.3008C19.1641 14.918 18.6719 14.6992 18.125 14.6992C17.5508 14.6992 17.0586 14.918 16.6758 15.3008C16.2656 15.7109 16.0742 16.2031 16.0742 16.75C16.0742 17.3242 16.2656 17.8164 16.6758 18.1992C17.0586 18.6094 17.5508 18.8008 18.125 18.8008ZM22.1445 13.4688C22.1445 13.2773 22.0625 13.1133 21.9258 12.9492C21.7617 12.8125 21.5977 12.7305 21.4062 12.7305C21.1875 12.7305 21.0234 12.8125 20.8867 12.9492C20.7227 13.1133 20.668 13.2773 20.668 13.4688C20.668 13.6875 20.7227 13.8516 20.8867 13.9883C21.0234 14.1523 21.1875 14.207 21.4062 14.207C21.5977 14.207 21.7617 14.1523 21.8984 13.9883C22.0352 13.8516 22.1172 13.6875 22.1445 13.4688ZM24.2227 14.207C24.2227 14.7266 24.25 15.5742 24.25 16.75C24.25 17.9531 24.2227 18.8008 24.1953 19.3203C24.168 19.8398 24.0859 20.2773 23.9766 20.6602C23.8125 21.125 23.5391 21.5352 23.2109 21.8633C22.8828 22.1914 22.4727 22.4375 22.0352 22.6016C21.6523 22.7383 21.1875 22.8203 20.668 22.8477C20.1484 22.875 19.3008 22.875 18.125 22.875C16.9219 22.875 16.0742 22.875 15.5547 22.8477C15.0352 22.8203 14.5977 22.7383 14.2148 22.5742C13.75 22.4375 13.3398 22.1914 13.0117 21.8633C12.6836 21.5352 12.4375 21.125 12.2734 20.6602C12.1367 20.2773 12.0547 19.8398 12.0273 19.3203C12 18.8008 12 17.9531 12 16.75C12 15.5742 12 14.7266 12.0273 14.207C12.0547 13.6875 12.1367 13.2227 12.2734 12.8398C12.4375 12.4023 12.6836 11.9922 13.0117 11.6641C13.3398 11.3359 13.75 11.0625 14.2148 10.8984C14.5977 10.7891 15.0352 10.707 15.5547 10.6797C16.0742 10.6523 16.9219 10.625 18.125 10.625C19.3008 10.625 20.1484 10.6523 20.668 10.6797C21.1875 10.707 21.6523 10.7891 22.0352 10.8984C22.4727 11.0625 22.8828 11.3359 23.2109 11.6641C23.5391 11.9922 23.8125 12.4023 23.9766 12.8398C24.0859 13.2227 24.168 13.6875 24.2227 14.207ZM22.9102 20.3594C23.0195 20.0586 23.0742 19.5664 23.1289 18.8828C23.1289 18.5 23.1562 17.9258 23.1562 17.1875V16.3125C23.1562 15.5742 23.1289 15 23.1289 14.6172C23.0742 13.9336 23.0195 13.4414 22.9102 13.1406C22.6914 12.5938 22.2812 12.1836 21.7344 11.9648C21.4336 11.8555 20.9414 11.8008 20.2578 11.7461C19.8477 11.7461 19.2734 11.7188 18.5625 11.7188H17.6875C16.9492 11.7188 16.375 11.7461 15.9922 11.7461C15.3086 11.8008 14.8164 11.8555 14.5156 11.9648C13.9414 12.1836 13.5586 12.5938 13.3398 13.1406C13.2305 13.4414 13.1484 13.9336 13.1211 14.6172C13.0938 15.0273 13.0938 15.6016 13.0938 16.3125V17.1875C13.0938 17.9258 13.0938 18.5 13.1211 18.8828C13.1484 19.5664 13.2305 20.0586 13.3398 20.3594C13.5586 20.9336 13.9688 21.3164 14.5156 21.5352C14.8164 21.6445 15.3086 21.7266 15.9922 21.7539C16.375 21.7812 16.9492 21.7812 17.6875 21.7812H18.5625C19.3008 21.7812 19.875 21.7812 20.2578 21.7539C20.9414 21.7266 21.4336 21.6445 21.7344 21.5352C22.2812 21.3164 22.6914 20.9062 22.9102 20.3594Z" fill="white"/>
</g>
<defs>
<filter id="filter0_d" x="0" y="0" width="37" height="37" filterUnits="userSpaceOnUse" color-interpolation-filters="sRGB">
<feFlood flood-opacity="0" result="BackgroundImageFix"/>
<feColorMatrix in="SourceAlpha" type="matrix" values="0 0 0 0 0 0 0 0 0 0 0 0 0 0 0 0 0 0 127 0"/>
<feOffset dy="2"/>
<feGaussianBlur stdDeviation="3"/>
<feColorMatrix type="matrix" values="0 0 0 0 0 0 0 0 0 0 0 0 0 0 0 0 0 0 0.25 0"/>
<feBlend mode="normal" in2="BackgroundImageFix" result="effect1_dropShadow"/>
<feBlend mode="normal" in="SourceGraphic" in2="effect1_dropShadow" result="shape"/>
</filter>
</defs>
</svg>
