<svg width="1920" height="1043" viewBox="0 0 1920 1043" fill="none" xmlns="http://www.w3.org/2000/svg">
<path d="M0.000221399 -6.5842e-05L1920 5.54202e-05C1920 218.5 1919 60.1812 1920 379.5C1662.33 294.41 1361.97 341.391 995.17 628.152C690.554 866.299 220.756 840.445 9.22488e-05 732.5L0.000221399 -6.5842e-05Z" fill="#FFA370"/>
<path d="M286.524 691.241H268.78V703.418H286.524V691.241Z" fill="#DE8E68"/>
<path d="M402.38 691.241H381.644V703.418H402.38V691.241Z" fill="#DE8E68"/>
<path d="M380.878 415.76C381.366 424.945 403.006 691.241 403.006 691.241H380.878L323.333 491.258C323.333 491.258 338.293 411.237 339.337 411.446C344.278 412.699 371.346 417.5 380.878 415.76Z" fill="#56CAD8"/>
<path d="M348.592 413.464L288.959 693.398H267.597C267.597 693.398 265.718 386.605 267.597 386.605C287.637 395.094 325.49 409.011 348.592 413.464Z" fill="#74D5DE"/>
<path d="M396.187 261.077C399.596 262.538 417.827 277.637 425.481 287.588C431.187 283.343 496.317 229.277 497.639 226.285C500.214 224.824 505.711 233.104 497.639 239.854C503.136 239.645 535.632 238.81 535.632 239.854C535.632 240.897 542.66 243.89 494.925 251.544C488.593 259.198 431.257 326.624 421.932 326.624C412.608 326.624 374.616 289.745 373.015 283.135C371.415 276.524 396.187 261.077 396.187 261.077Z" fill="#DE8E68"/>
<path d="M346.574 231.086C331.683 244.933 358.959 286.683 366.683 288.493C376.494 290.858 398.9 272.28 403.702 259.407C405.859 253.353 358.82 219.744 346.574 231.086Z" fill="#FCC486"/>
<path d="M319.854 210.907C237.05 210.907 255.837 370.74 261.126 381.664C266.414 392.589 372.459 424.319 380.809 415.76C389.159 407.202 404.537 210.907 319.854 210.907Z" fill="#FED385"/>
<path d="M334.118 189.406H309.068V225.798C309.068 230.46 334.118 230.46 334.118 225.798V189.406Z" fill="#D37C59"/>
<path d="M321.315 202.487C337.071 202.487 349.844 181.054 349.844 154.614C349.844 128.174 337.071 106.741 321.315 106.741C305.559 106.741 292.786 128.174 292.786 154.614C292.786 181.054 305.559 202.487 321.315 202.487Z" fill="#DE8E68"/>
<path d="M316.583 96.025C302.179 96.025 283.114 102.983 269.266 102.983C256.741 102.983 233.988 93.9375 221.95 93.9375C214.296 93.9375 178.112 97.4863 178.112 126.642C178.112 139.793 192.029 152.388 194.812 155.867C197.596 159.346 202.675 178.829 215.687 178.829C233.849 178.829 246.374 165.608 263.004 165.608C274.485 165.608 277.477 168.392 283.183 168.392C287.358 168.392 293.621 166.443 293.621 166.304C293.621 164.147 293.203 146.125 295.708 143.203C299.187 139.028 343.512 145.22 343.512 130.538C346.643 133.322 349.566 145.151 349.566 147.586C351.584 145.499 359.099 136.453 359.099 126.711C359.029 117.805 352.766 96.025 316.583 96.025Z" fill="black"/>
<path d="M284.069 355.198L216.901 360.224L223.564 449.25L290.732 444.223L284.069 355.198Z" fill="#DFDFDF"/>
<path d="M291.097 361.666L223.929 366.693L230.591 455.719L297.76 450.692L291.097 361.666Z" fill="#F2F2F2"/>
<path d="M256.881 455.771C264.221 455.771 270.171 447.39 270.171 437.053C270.171 426.715 264.221 418.335 256.881 418.335C249.541 418.335 243.59 426.715 243.59 437.053C243.59 447.39 249.541 455.771 256.881 455.771Z" fill="#DE8E68"/>
<path d="M248.461 280.073C246.722 283.97 235.241 327.459 237.676 364.617C240.111 401.774 246.443 422.719 246.443 425.641C246.443 428.564 267.736 427.381 267.736 425.641C267.736 423.902 262.239 371.018 263.422 361.625C264.605 352.231 280.539 297.886 280.122 291.206C279.704 284.526 248.461 280.073 248.461 280.073Z" fill="#DE8E68"/>
<path d="M279.704 233.73C260.708 227.677 238.233 271.027 240.39 278.542C243.103 288.005 269.615 298.304 282.905 296.216C289.168 295.172 295.291 238.74 279.704 233.73Z" fill="#FED892"/>
<path d="M267.875 700.635V705.993L246.722 745.655H260.499L288.054 720.675V700.635H267.875Z" fill="black"/>
<path d="M380.948 699.8V719.909H439.746V711.977L402.449 699.8H380.948Z" fill="black"/>
<path d="M155.15 301.574C181.397 301.574 202.675 280.296 202.675 254.049C202.675 227.801 181.397 206.523 155.15 206.523C128.902 206.523 107.625 227.801 107.625 254.049C107.625 280.296 128.902 301.574 155.15 301.574Z" fill="white"/>
<path d="M214.694 226.832C216.945 224.784 215.068 221.072 212.084 221.672L169.446 230.241C167.505 230.631 166.467 232.763 167.358 234.532L177.797 255.253C178.69 257.026 181.027 257.458 182.495 256.123L214.694 226.832Z" fill="white"/>
<path d="M150.161 266.31C150.204 263.746 150.495 261.72 151.034 260.233C151.572 258.747 152.671 257.098 154.331 255.288L158.565 250.924C160.375 248.877 161.28 246.679 161.28 244.33C161.28 242.067 160.688 240.3 159.503 239.029C158.317 237.736 156.593 237.089 154.331 237.089C152.133 237.089 150.366 237.671 149.029 238.835C147.693 239.999 147.025 241.561 147.025 243.522H141.045C141.089 240.031 142.328 237.219 144.763 235.085C147.219 232.93 150.409 231.853 154.331 231.853C158.404 231.853 161.571 232.952 163.834 235.15C166.118 237.326 167.26 240.322 167.26 244.136C167.26 247.907 165.515 251.624 162.024 255.288L158.5 258.779C156.927 260.524 156.141 263.035 156.141 266.31H150.161ZM149.902 276.557C149.902 275.587 150.193 274.779 150.775 274.133C151.378 273.465 152.262 273.131 153.426 273.131C154.589 273.131 155.473 273.465 156.076 274.133C156.68 274.779 156.981 275.587 156.981 276.557C156.981 277.527 156.68 278.335 156.076 278.982C155.473 279.606 154.589 279.919 153.426 279.919C152.262 279.919 151.378 279.606 150.775 278.982C150.193 278.335 149.902 277.527 149.902 276.557Z" fill="#FFA370"/>
<path d="M208.005 96.3007C209.168 99.1138 205.886 101.67 203.443 99.8541L168.5 73.8798C166.909 72.6974 166.882 70.325 168.445 69.1063L186.755 54.8285C188.319 53.6089 190.614 54.2156 191.372 56.0486L208.005 96.3007Z" fill="white"/>
<path d="M111.389 4.02893H209.939C212.701 4.02893 214.939 6.26751 214.939 9.02894V74.5964C214.939 77.3579 212.701 79.5964 209.939 79.5964H111.389C108.628 79.5964 106.389 77.3578 106.389 74.5964V9.02893C106.389 6.26751 108.628 4.02893 111.389 4.02893Z" fill="white"/>
<path d="M185.227 47.0315C182.345 47.0315 180.009 44.695 180.009 41.8127C180.009 38.9305 182.345 36.594 185.227 36.594C188.11 36.594 190.446 38.9305 190.446 41.8127C190.446 44.695 188.11 47.0315 185.227 47.0315Z" fill="#FFA370"/>
<path d="M160.734 47.0315C157.852 47.0315 155.515 44.695 155.515 41.8127C155.515 38.9305 157.852 36.594 160.734 36.594C163.616 36.594 165.953 38.9305 165.953 41.8127C165.953 44.695 163.616 47.0315 160.734 47.0315Z" fill="#FFA370"/>
<path d="M136.171 47.0315C133.289 47.0315 130.952 44.695 130.952 41.8127C130.952 38.9305 133.289 36.594 136.171 36.594C139.053 36.594 141.39 38.9305 141.39 41.8127C141.39 44.695 139.053 47.0315 136.171 47.0315Z" fill="#FFA370"/>
<path d="M279.774 368.444C279.982 370.81 278.173 372.828 275.807 373.036C273.442 373.245 271.424 371.436 271.215 369.07L270.171 354.945C269.962 352.579 271.772 350.561 274.137 350.352C276.503 350.143 278.521 351.953 278.73 354.318L279.287 361.833" stroke="black" stroke-width="2.5" stroke-miterlimit="10" stroke-linecap="round" stroke-linejoin="round"/>
</svg>
