<svg width="1920" height="1043" viewBox="0 0 1920 1043" fill="none" xmlns="http://www.w3.org/2000/svg">
<path d="M0.000221399 -6.5842e-05L1920 5.54202e-05C1920 218.5 1919 60.1812 1920 379.5C1662.33 294.41 1361.97 341.391 995.17 628.152C690.554 866.299 220.756 840.445 9.22488e-05 732.5L0.000221399 -6.5842e-05Z" fill="#FFA370"/>
<path d="M286.524 775.241H268.78V787.418H286.524V775.241Z" fill="#DE8E68"/>
<path d="M402.38 775.241H381.644V787.418H402.38V775.241Z" fill="#DE8E68"/>
<path d="M380.878 499.76C381.366 508.945 403.006 775.241 403.006 775.241H380.878L323.333 575.258C323.333 575.258 338.293 495.237 339.337 495.446C344.278 496.699 371.346 501.5 380.878 499.76Z" fill="#56CAD8"/>
<path d="M348.592 497.464L288.959 777.398H267.597C267.597 777.398 265.718 470.605 267.597 470.605C287.637 479.094 325.49 493.011 348.592 497.464Z" fill="#74D5DE"/>
<path d="M396.187 345.077C399.596 346.538 417.827 361.637 425.481 371.588C431.187 367.343 496.317 313.277 497.639 310.285C500.214 308.824 505.711 317.104 497.639 323.854C503.136 323.645 535.632 322.81 535.632 323.854C535.632 324.897 542.66 327.89 494.925 335.544C488.593 343.198 431.257 410.624 421.932 410.624C412.608 410.624 374.616 373.745 373.015 367.135C371.415 360.524 396.187 345.077 396.187 345.077Z" fill="#DE8E68"/>
<path d="M346.574 315.086C331.683 328.933 358.959 370.683 366.683 372.493C376.494 374.858 398.9 356.28 403.702 343.407C405.859 337.353 358.82 303.744 346.574 315.086Z" fill="#FCC486"/>
<path d="M319.854 294.907C237.05 294.907 255.837 454.74 261.126 465.664C266.414 476.589 372.459 508.319 380.809 499.76C389.159 491.202 404.537 294.907 319.854 294.907Z" fill="#FED385"/>
<path d="M334.118 273.406H309.068V309.798C309.068 314.46 334.118 314.46 334.118 309.798V273.406Z" fill="#D37C59"/>
<path d="M321.315 286.487C337.071 286.487 349.844 265.054 349.844 238.614C349.844 212.174 337.071 190.741 321.315 190.741C305.559 190.741 292.786 212.174 292.786 238.614C292.786 265.054 305.559 286.487 321.315 286.487Z" fill="#DE8E68"/>
<path d="M316.583 180.025C302.179 180.025 283.114 186.983 269.266 186.983C256.741 186.983 233.988 177.938 221.95 177.938C214.296 177.938 178.112 181.486 178.112 210.642C178.112 223.793 192.029 236.388 194.812 239.867C197.596 243.346 202.675 262.829 215.687 262.829C233.849 262.829 246.374 249.608 263.004 249.608C274.485 249.608 277.477 252.392 283.183 252.392C287.358 252.392 293.621 250.443 293.621 250.304C293.621 248.147 293.203 230.125 295.708 227.203C299.187 223.028 343.512 229.22 343.512 214.538C346.643 217.322 349.566 229.151 349.566 231.586C351.584 229.499 359.099 220.453 359.099 210.711C359.029 201.805 352.766 180.025 316.583 180.025Z" fill="black"/>
<path d="M284.069 439.198L216.901 444.224L223.564 533.25L290.732 528.223L284.069 439.198Z" fill="#DFDFDF"/>
<path d="M291.097 445.666L223.929 450.693L230.591 539.719L297.76 534.692L291.097 445.666Z" fill="#F2F2F2"/>
<path d="M256.881 539.771C264.221 539.771 270.171 531.39 270.171 521.053C270.171 510.715 264.221 502.335 256.881 502.335C249.541 502.335 243.59 510.715 243.59 521.053C243.59 531.39 249.541 539.771 256.881 539.771Z" fill="#DE8E68"/>
<path d="M248.461 364.073C246.722 367.97 235.241 411.459 237.676 448.617C240.111 485.774 246.443 506.719 246.443 509.641C246.443 512.564 267.736 511.381 267.736 509.641C267.736 507.902 262.239 455.018 263.422 445.625C264.605 436.231 280.539 381.886 280.122 375.206C279.704 368.526 248.461 364.073 248.461 364.073Z" fill="#DE8E68"/>
<path d="M279.704 317.73C260.708 311.677 238.233 355.027 240.39 362.542C243.103 372.005 269.615 382.304 282.905 380.216C289.168 379.172 295.291 322.74 279.704 317.73Z" fill="#FED892"/>
<path d="M267.875 784.635V789.993L246.722 829.655H260.499L288.054 804.675V784.635H267.875Z" fill="black"/>
<path d="M380.948 783.8V803.909H439.746V795.977L402.449 783.8H380.948Z" fill="black"/>
<path d="M155.15 385.574C181.397 385.574 202.675 364.296 202.675 338.049C202.675 311.801 181.397 290.523 155.15 290.523C128.902 290.523 107.625 311.801 107.625 338.049C107.625 364.296 128.902 385.574 155.15 385.574Z" fill="white"/>
<path d="M214.694 310.832C216.945 308.784 215.068 305.072 212.084 305.672L169.446 314.241C167.505 314.631 166.467 316.763 167.358 318.532L177.797 339.253C178.69 341.026 181.027 341.458 182.495 340.123L214.694 310.832Z" fill="white"/>
<path d="M150.161 350.31C150.204 347.746 150.495 345.72 151.034 344.233C151.572 342.747 152.671 341.098 154.331 339.288L158.565 334.924C160.375 332.877 161.28 330.679 161.28 328.33C161.28 326.067 160.688 324.3 159.503 323.029C158.317 321.736 156.593 321.089 154.331 321.089C152.133 321.089 150.366 321.671 149.029 322.835C147.693 323.999 147.025 325.561 147.025 327.522H141.045C141.089 324.031 142.328 321.219 144.763 319.085C147.219 316.93 150.409 315.853 154.331 315.853C158.404 315.853 161.571 316.952 163.834 319.15C166.118 321.326 167.26 324.322 167.26 328.136C167.26 331.907 165.515 335.624 162.024 339.288L158.5 342.779C156.927 344.524 156.141 347.035 156.141 350.31H150.161ZM149.902 360.557C149.902 359.587 150.193 358.779 150.775 358.133C151.378 357.465 152.262 357.131 153.426 357.131C154.589 357.131 155.473 357.465 156.076 358.133C156.68 358.779 156.981 359.587 156.981 360.557C156.981 361.527 156.68 362.335 156.076 362.982C155.473 363.606 154.589 363.919 153.426 363.919C152.262 363.919 151.378 363.606 150.775 362.982C150.193 362.335 149.902 361.527 149.902 360.557Z" fill="#FFA370"/>
<path d="M208.005 180.301C209.168 183.114 205.886 185.67 203.443 183.854L168.5 157.88C166.909 156.697 166.882 154.325 168.445 153.106L186.755 138.829C188.319 137.609 190.614 138.216 191.372 140.049L208.005 180.301Z" fill="white"/>
<path d="M111.389 88.0289H209.939C212.701 88.0289 214.939 90.2675 214.939 93.0289V158.596C214.939 161.358 212.701 163.596 209.939 163.596H111.389C108.628 163.596 106.389 161.358 106.389 158.596V93.0289C106.389 90.2675 108.628 88.0289 111.389 88.0289Z" fill="white"/>
<path d="M185.227 131.031C182.345 131.031 180.009 128.695 180.009 125.813C180.009 122.931 182.345 120.594 185.227 120.594C188.11 120.594 190.446 122.931 190.446 125.813C190.446 128.695 188.11 131.031 185.227 131.031Z" fill="#FFA370"/>
<path d="M160.734 131.031C157.852 131.031 155.515 128.695 155.515 125.813C155.515 122.931 157.852 120.594 160.734 120.594C163.616 120.594 165.953 122.931 165.953 125.813C165.953 128.695 163.616 131.031 160.734 131.031Z" fill="#FFA370"/>
<path d="M136.171 131.031C133.289 131.031 130.952 128.695 130.952 125.813C130.952 122.931 133.289 120.594 136.171 120.594C139.053 120.594 141.39 122.931 141.39 125.813C141.39 128.695 139.053 131.031 136.171 131.031Z" fill="#FFA370"/>
<path d="M279.774 452.444C279.982 454.81 278.173 456.828 275.807 457.036C273.442 457.245 271.424 455.436 271.215 453.07L270.171 438.945C269.962 436.579 271.772 434.561 274.137 434.352C276.503 434.143 278.521 435.953 278.73 438.318L279.287 445.833" stroke="black" stroke-width="2.5" stroke-miterlimit="10" stroke-linecap="round" stroke-linejoin="round"/>
</svg>
