<svg width="30" height="27" viewBox="0 0 30 27" fill="none" xmlns="http://www.w3.org/2000/svg">
<path d="M23.168 21.918H24.392V22.75H20.912V21.918H22.136V18.286L21.168 18.87L20.76 18.118L22.432 17.11H23.168V21.918ZM27.5489 19.134C27.8795 19.134 28.1755 19.2113 28.4369 19.366C28.6982 19.5153 28.9009 19.7287 29.0449 20.006C29.1942 20.278 29.2689 20.59 29.2689 20.942C29.2689 21.3047 29.1889 21.63 29.0289 21.918C28.8689 22.2007 28.6449 22.422 28.3569 22.582C28.0689 22.742 27.7435 22.822 27.3809 22.822C26.6662 22.822 26.1142 22.582 25.7249 22.102C25.3409 21.6167 25.1489 20.926 25.1489 20.03C25.1489 19.4113 25.2395 18.878 25.4209 18.43C25.6075 17.9767 25.8742 17.6327 26.2209 17.398C26.5675 17.158 26.9782 17.038 27.4529 17.038C27.7889 17.038 28.1169 17.0967 28.4369 17.214C28.7569 17.326 29.0342 17.486 29.2689 17.694L28.9249 18.446C28.4289 18.0567 27.9515 17.862 27.4929 17.862C27.0822 17.862 26.7622 18.038 26.5329 18.39C26.3035 18.7367 26.1835 19.2407 26.1729 19.902C26.2955 19.662 26.4795 19.4753 26.7249 19.342C26.9702 19.2033 27.2449 19.134 27.5489 19.134ZM27.3329 22.006C27.6262 22.006 27.8582 21.9127 28.0289 21.726C28.2049 21.5393 28.2929 21.2887 28.2929 20.974C28.2929 20.6647 28.2049 20.4167 28.0289 20.23C27.8529 20.0433 27.6182 19.95 27.3249 19.95C27.0315 19.95 26.7915 20.046 26.6049 20.238C26.4235 20.4247 26.3329 20.67 26.3329 20.974C26.3329 21.2833 26.4235 21.534 26.6049 21.726C26.7915 21.9127 27.0342 22.006 27.3329 22.006Z" fill="black"/>
<path d="M4.376 21.918V22.75H0.584V21.99L2.504 19.926C2.728 19.6807 2.89067 19.4567 2.992 19.254C3.09867 19.046 3.152 18.8407 3.152 18.638C3.152 18.382 3.07733 18.19 2.928 18.062C2.784 17.9287 2.57067 17.862 2.288 17.862C1.78133 17.862 1.272 18.0567 0.76 18.446L0.416 17.694C0.64 17.4967 0.925333 17.3393 1.272 17.222C1.624 17.0993 1.976 17.038 2.328 17.038C2.89333 17.038 3.34133 17.1767 3.672 17.454C4.00267 17.7313 4.168 18.1047 4.168 18.574C4.168 18.8993 4.09867 19.206 3.96 19.494C3.82133 19.7767 3.58667 20.094 3.256 20.446L1.872 21.918H4.376ZM9.38869 20.846V21.646H8.59669V22.75H7.58869V21.646H5.14069V20.886L7.76469 17.11H8.59669V20.846H9.38869ZM6.10069 20.846H7.58869V18.694L6.10069 20.846Z" fill="black"/>
<line x1="8.84702" y1="8.08337" x2="5.54719" y2="4.78354" stroke="black" stroke-width="2" stroke-linecap="round" stroke-linejoin="round"/>
<line x1="2.01172" y1="7.84763" x2="5.31155" y2="4.5478" stroke="black" stroke-width="2" stroke-linecap="round" stroke-linejoin="round"/>
<line x1="21.4142" y1="5.29724" x2="24.714" y2="8.59707" stroke="black" stroke-width="2" stroke-linecap="round" stroke-linejoin="round"/>
<line x1="28.2495" y1="5.53311" x2="24.9497" y2="8.83294" stroke="black" stroke-width="2" stroke-linecap="round" stroke-linejoin="round"/>
</svg>
