<svg width="945" height="326" viewBox="0 0 945 326" fill="none" xmlns="http://www.w3.org/2000/svg">
<g clip-path="url(#clip0)">
<path d="M864.235 107.428C883.635 134.435 894.125 161.359 894.934 186.879C895.842 212.403 887.093 236.601 875.541 261.545C863.986 286.406 849.542 312.008 830.149 315.394C810.755 318.697 786.409 299.866 759.836 289.214C733.169 278.64 704.295 276.327 686.291 260.39C668.311 244.367 661.296 214.716 664.928 185.807C668.642 156.901 683.167 128.723 705.449 102.307C727.815 75.7956 758.102 51.0166 787.317 52.1714C816.613 53.3295 844.92 80.4181 864.235 107.428Z" fill="#F8F8F8"/>
<path d="M814.673 220.401C820.616 237.025 823.055 313.094 823.055 326H792.3L779.499 297.13L801.718 216.297L814.673 220.401Z" fill="#56CAD8"/>
<path d="M803.786 222.517C802.108 233.632 787.169 317.181 783.835 326H739.397C737.509 319.701 730.376 245.597 739.397 218.308C748.419 191.02 803.786 222.517 803.786 222.517Z" fill="#74D5DE"/>
<path d="M811.493 178.346C814.322 177.789 852.82 160.214 861.54 152.734C870.26 145.254 859.842 139.477 856.557 141.403C853.273 143.328 819.078 158.062 812.057 160.214C805.035 162.366 811.493 178.346 811.493 178.346Z" fill="#DE8E68"/>
<path d="M870.444 98.644L842.445 100.83L846.664 154.967L874.663 152.781L870.444 98.644Z" fill="#DEDEDE"/>
<path d="M830.434 111.099L845.077 140.897" stroke="black" stroke-width="8" stroke-linecap="round" stroke-linejoin="round"/>
<path d="M772.756 98.7753C780.729 97.9029 786.167 87.8101 784.902 76.2324C783.637 64.6547 776.148 55.9763 768.175 56.8488C760.203 57.7212 754.765 67.814 756.03 79.3918C757.295 90.9695 764.783 99.6478 772.756 98.7753Z" fill="#DE8E68"/>
<path d="M767.589 102.116C816.106 102.116 818.367 220.385 816.237 222.517C814.106 224.65 764.77 234.656 737.889 223.502C731.33 194.96 735.791 102.116 767.589 102.116Z" fill="#FED385"/>
<path d="M844.36 126.662C844.36 123.894 841.409 118.133 837.079 119.156C834.099 119.858 830.001 125.839 828.228 128.378C822.226 132.515 784.245 163.954 781.324 166.998C781.203 164.459 778.767 159.377 775.843 154.676L751.11 170.683C753.67 177.798 769.628 196.6 775.843 196.6C792.159 196.6 825.146 152.235 833.506 140.336C837.413 137.617 844.363 132.187 844.36 126.662Z" fill="#DE8E68"/>
<path d="M745.547 67.5577C745.547 61.3999 750.539 57.7977 752.162 56.1147C755.44 52.7028 757.407 43.6055 764.334 43.6055C766.301 43.6055 769.356 44.7504 771.277 44.7504C773.68 44.7406 778.463 40 783.285 40C791.362 40 793.158 47.4406 793.158 49.7272C793.158 58.0995 782.741 64.4181 781.357 65.1727C780.77 64.2114 778.079 60.6158 777.184 60.0712C776.112 62.3086 768.877 66.0322 763.409 69.3687C760.348 71.2386 758.42 85.7524 758.466 86.8973C753.359 86.9137 745.547 79.1582 745.547 67.5577Z" fill="#FD8369"/>
<path d="M757.663 85.5031C759.935 85.5031 761.777 83.6597 761.777 81.3858C761.777 79.1119 759.935 77.2686 757.663 77.2686C755.391 77.2686 753.549 79.1119 753.549 81.3858C753.549 83.6597 755.391 85.5031 757.663 85.5031Z" fill="#DE8E68"/>
<path d="M774.473 109.96C774.801 112.017 761.914 111.496 761.764 109.304L760.344 88.6885L772.014 87.4124C772.014 87.4124 774.165 107.91 774.473 109.96Z" fill="#DE8E68"/>
<path d="M741.915 119.832C727.429 127.729 740.38 168.74 749.53 172.94C759.866 172.94 780.724 157.963 780.724 152.908C780.724 147.852 760.705 109.596 741.915 119.832Z" fill="#FED892"/>
<path d="M862.94 122.863C862.94 129.671 871.027 133.263 872.204 133.263C874.669 133.263 874.669 125.813 874.669 123.884C874.669 119.488 870.385 116.269 867.129 116.269C863.874 116.269 862.94 119.005 862.94 122.863Z" fill="#DE8E68"/>
</g>
<defs>
<clipPath id="clip0">
<rect width="231" height="286" fill="white" transform="translate(664 40)"/>
</clipPath>
</defs>
</svg>
