<svg width="100" height="14" viewBox="0 0 100 14" fill="none" xmlns="http://www.w3.org/2000/svg">
<path d="M14.418 1.75C15.1211 2.36523 15.5898 3.09766 15.8535 3.91797C16.0586 4.67969 16.0586 5.4707 15.8535 6.26172C15.6191 7.05273 15.2676 7.72656 14.7402 8.25391L9.61328 13.4688C9.29102 13.791 8.91016 13.9375 8.5 13.9375C8.06055 13.9375 7.67969 13.791 7.38672 13.4688L2.25977 8.25391C1.73242 7.72656 1.35156 7.05273 1.14648 6.26172C0.912109 5.4707 0.941406 4.67969 1.17578 3.91797C1.41016 3.09766 1.87891 2.36523 2.58203 1.75C3.10938 1.28125 3.75391 0.988281 4.48633 0.871094C5.18945 0.753906 5.92188 0.8125 6.625 1.04688C7.32812 1.28125 7.97266 1.66211 8.5 2.18945C9.02734 1.66211 9.64258 1.28125 10.3457 1.04688C11.0488 0.8125 11.7812 0.753906 12.5137 0.871094C13.2168 0.988281 13.8613 1.28125 14.418 1.75ZM13.7441 7.25781C14.0957 6.90625 14.3301 6.4375 14.4766 5.91016C14.623 5.38281 14.623 4.82617 14.4766 4.29883C14.3008 3.74219 13.9785 3.24414 13.5098 2.83398C12.9238 2.36523 12.25 2.16016 11.4883 2.21875C10.7266 2.27734 10.0527 2.59961 9.52539 3.15625L8.5 4.18164L7.47461 3.15625C6.91797 2.59961 6.24414 2.27734 5.48242 2.21875C4.7207 2.16016 4.04688 2.36523 3.49023 2.83398C2.99219 3.24414 2.66992 3.74219 2.52344 4.29883C2.34766 4.82617 2.34766 5.38281 2.49414 5.91016C2.64062 6.4375 2.9043 6.90625 3.25586 7.25781L8.41211 12.4727C8.4707 12.5605 8.5293 12.5605 8.58789 12.4727L13.7441 7.25781ZM35.2773 1.75C35.9805 2.36523 36.4492 3.09766 36.7129 3.91797C36.918 4.67969 36.918 5.4707 36.7129 6.26172C36.4785 7.05273 36.127 7.72656 35.5996 8.25391L30.4727 13.4688C30.1504 13.791 29.7695 13.9375 29.3594 13.9375C28.9199 13.9375 28.5391 13.791 28.2461 13.4688L23.1191 8.25391C22.5918 7.72656 22.2109 7.05273 22.0059 6.26172C21.7715 5.4707 21.8008 4.67969 22.0352 3.91797C22.2695 3.09766 22.7383 2.36523 23.4414 1.75C23.9688 1.28125 24.6133 0.988281 25.3457 0.871094C26.0488 0.753906 26.7812 0.8125 27.4844 1.04688C28.1875 1.28125 28.832 1.66211 29.3594 2.18945C29.8867 1.66211 30.502 1.28125 31.2051 1.04688C31.9082 0.8125 32.6406 0.753906 33.373 0.871094C34.0762 0.988281 34.7207 1.28125 35.2773 1.75ZM34.6035 7.25781C34.9551 6.90625 35.1895 6.4375 35.3359 5.91016C35.4824 5.38281 35.4824 4.82617 35.3359 4.29883C35.1602 3.74219 34.8379 3.24414 34.3691 2.83398C33.7832 2.36523 33.1094 2.16016 32.3477 2.21875C31.5859 2.27734 30.9121 2.59961 30.3848 3.15625L29.3594 4.18164L28.334 3.15625C27.7773 2.59961 27.1035 2.27734 26.3418 2.21875C25.5801 2.16016 24.9062 2.36523 24.3496 2.83398C23.8516 3.24414 23.5293 3.74219 23.3828 4.29883C23.207 4.82617 23.207 5.38281 23.3535 5.91016C23.5 6.4375 23.7637 6.90625 24.1152 7.25781L29.2715 12.4727C29.3301 12.5605 29.3887 12.5605 29.4473 12.4727L34.6035 7.25781ZM56.1367 1.75C56.8398 2.36523 57.3086 3.09766 57.5723 3.91797C57.7773 4.67969 57.7773 5.4707 57.5723 6.26172C57.3379 7.05273 56.9863 7.72656 56.459 8.25391L51.332 13.4688C51.0098 13.791 50.6289 13.9375 50.2188 13.9375C49.7793 13.9375 49.3984 13.791 49.1055 13.4688L43.9785 8.25391C43.4512 7.72656 43.0703 7.05273 42.8652 6.26172C42.6309 5.4707 42.6602 4.67969 42.8945 3.91797C43.1289 3.09766 43.5977 2.36523 44.3008 1.75C44.8281 1.28125 45.4727 0.988281 46.2051 0.871094C46.9082 0.753906 47.6406 0.8125 48.3438 1.04688C49.0469 1.28125 49.6914 1.66211 50.2188 2.18945C50.7461 1.66211 51.3613 1.28125 52.0645 1.04688C52.7676 0.8125 53.5 0.753906 54.2324 0.871094C54.9355 0.988281 55.5801 1.28125 56.1367 1.75ZM55.4629 7.25781C55.8145 6.90625 56.0488 6.4375 56.1953 5.91016C56.3418 5.38281 56.3418 4.82617 56.1953 4.29883C56.0195 3.74219 55.6973 3.24414 55.2285 2.83398C54.6426 2.36523 53.9688 2.16016 53.207 2.21875C52.4453 2.27734 51.7715 2.59961 51.2441 3.15625L50.2188 4.18164L49.1934 3.15625C48.6367 2.59961 47.9629 2.27734 47.2012 2.21875C46.4395 2.16016 45.7656 2.36523 45.209 2.83398C44.7109 3.24414 44.3887 3.74219 44.2422 4.29883C44.0664 4.82617 44.0664 5.38281 44.2129 5.91016C44.3594 6.4375 44.623 6.90625 44.9746 7.25781L50.1309 12.4727C50.1895 12.5605 50.248 12.5605 50.3066 12.4727L55.4629 7.25781ZM76.9961 1.75C77.6992 2.36523 78.168 3.09766 78.4316 3.91797C78.6367 4.67969 78.6367 5.4707 78.4316 6.26172C78.1973 7.05273 77.8457 7.72656 77.3184 8.25391L72.1914 13.4688C71.8691 13.791 71.4883 13.9375 71.0781 13.9375C70.6387 13.9375 70.2578 13.791 69.9648 13.4688L64.8379 8.25391C64.3105 7.72656 63.9297 7.05273 63.7246 6.26172C63.4902 5.4707 63.5195 4.67969 63.7539 3.91797C63.9883 3.09766 64.457 2.36523 65.1602 1.75C65.6875 1.28125 66.332 0.988281 67.0645 0.871094C67.7676 0.753906 68.5 0.8125 69.2031 1.04688C69.9062 1.28125 70.5508 1.66211 71.0781 2.18945C71.6055 1.66211 72.2207 1.28125 72.9238 1.04688C73.627 0.8125 74.3594 0.753906 75.0918 0.871094C75.7949 0.988281 76.4395 1.28125 76.9961 1.75ZM76.3223 7.25781C76.6738 6.90625 76.9082 6.4375 77.0547 5.91016C77.2012 5.38281 77.2012 4.82617 77.0547 4.29883C76.8789 3.74219 76.5566 3.24414 76.0879 2.83398C75.502 2.36523 74.8281 2.16016 74.0664 2.21875C73.3047 2.27734 72.6309 2.59961 72.1035 3.15625L71.0781 4.18164L70.0527 3.15625C69.4961 2.59961 68.8223 2.27734 68.0605 2.21875C67.2988 2.16016 66.625 2.36523 66.0684 2.83398C65.5703 3.24414 65.248 3.74219 65.1016 4.29883C64.9258 4.82617 64.9258 5.38281 65.0723 5.91016C65.2188 6.4375 65.4824 6.90625 65.834 7.25781L70.9902 12.4727C71.0488 12.5605 71.1074 12.5605 71.166 12.4727L76.3223 7.25781ZM97.8555 1.75C98.5586 2.36523 99.0273 3.09766 99.291 3.91797C99.4961 4.67969 99.4961 5.4707 99.291 6.26172C99.0566 7.05273 98.7051 7.72656 98.1777 8.25391L93.0508 13.4688C92.7285 13.791 92.3477 13.9375 91.9375 13.9375C91.498 13.9375 91.1172 13.791 90.8242 13.4688L85.6973 8.25391C85.1699 7.72656 84.7891 7.05273 84.584 6.26172C84.3496 5.4707 84.3789 4.67969 84.6133 3.91797C84.8477 3.09766 85.3164 2.36523 86.0195 1.75C86.5469 1.28125 87.1914 0.988281 87.9238 0.871094C88.627 0.753906 89.3594 0.8125 90.0625 1.04688C90.7656 1.28125 91.4102 1.66211 91.9375 2.18945C92.4648 1.66211 93.0801 1.28125 93.7832 1.04688C94.4863 0.8125 95.2188 0.753906 95.9512 0.871094C96.6543 0.988281 97.2988 1.28125 97.8555 1.75ZM97.1816 7.25781C97.5332 6.90625 97.7676 6.4375 97.9141 5.91016C98.0605 5.38281 98.0605 4.82617 97.9141 4.29883C97.7383 3.74219 97.416 3.24414 96.9473 2.83398C96.3613 2.36523 95.6875 2.16016 94.9258 2.21875C94.1641 2.27734 93.4902 2.59961 92.9629 3.15625L91.9375 4.18164L90.9121 3.15625C90.3555 2.59961 89.6816 2.27734 88.9199 2.21875C88.1582 2.16016 87.4844 2.36523 86.9277 2.83398C86.4297 3.24414 86.1074 3.74219 85.9609 4.29883C85.7852 4.82617 85.7852 5.38281 85.9316 5.91016C86.0781 6.4375 86.3418 6.90625 86.6934 7.25781L91.8496 12.4727C91.9082 12.5605 91.9668 12.5605 92.0254 12.4727L97.1816 7.25781Z" fill="#FFA370"/>
</svg>
