<svg width="134" height="361" viewBox="0 0 134 361" fill="none" xmlns="http://www.w3.org/2000/svg">
<path d="M32.468 11.172V12H27.02V11.256L29.984 7.992C30.384 7.544 30.672 7.144 30.848 6.792C31.032 6.432 31.124 6.072 31.124 5.712C31.124 5.248 30.988 4.892 30.716 4.644C30.444 4.396 30.06 4.272 29.564 4.272C28.748 4.272 27.948 4.596 27.164 5.244L26.792 4.488C27.128 4.168 27.548 3.916 28.052 3.732C28.564 3.54 29.076 3.444 29.588 3.444C30.364 3.444 30.976 3.644 31.424 4.044C31.88 4.444 32.108 4.984 32.108 5.664C32.108 6.152 31.996 6.62 31.772 7.068C31.556 7.516 31.196 8.016 30.692 8.568L28.292 11.172H32.468ZM37.9593 7.656C38.4553 7.8 38.8353 8.048 39.0993 8.4C39.3633 8.744 39.4953 9.18 39.4953 9.708C39.4953 10.444 39.2433 11.024 38.7393 11.448C38.2433 11.872 37.5673 12.084 36.7113 12.084C36.1673 12.084 35.6433 11.992 35.1393 11.808C34.6353 11.624 34.2113 11.368 33.8673 11.04L34.2393 10.284C35.0073 10.932 35.8233 11.256 36.6873 11.256C37.2873 11.256 37.7433 11.124 38.0553 10.86C38.3673 10.588 38.5233 10.192 38.5233 9.672C38.5233 8.64 37.8753 8.124 36.5793 8.124H35.6073V7.296H36.3873C37.0113 7.296 37.4913 7.16 37.8273 6.888C38.1633 6.608 38.3313 6.208 38.3313 5.688C38.3313 5.232 38.1953 4.884 37.9233 4.644C37.6513 4.396 37.2633 4.272 36.7593 4.272C35.9433 4.272 35.1433 4.596 34.3593 5.244L33.9873 4.488C34.3313 4.16 34.7513 3.904 35.2473 3.72C35.7433 3.536 36.2593 3.444 36.7953 3.444C37.5633 3.444 38.1713 3.64 38.6193 4.032C39.0753 4.416 39.3033 4.936 39.3033 5.592C39.3033 6.08 39.1833 6.508 38.9433 6.876C38.7113 7.236 38.3833 7.496 37.9593 7.656ZM41.2546 9.204V8.4H44.6146V9.204H41.2546ZM45.0759 11.256L45.7959 11.208C46.1959 11.176 46.5039 11.036 46.7199 10.788C46.9439 10.532 47.0559 10.184 47.0559 9.744V3.54H48.0399V9.756C48.0399 10.452 47.8599 10.996 47.4999 11.388C47.1399 11.78 46.6159 11.996 45.9279 12.036L45.1479 12.084L45.0759 11.256ZM52.3619 6.012C53.1059 6.012 53.6579 6.204 54.0179 6.588C54.3859 6.964 54.5699 7.54 54.5699 8.316V12H53.6219V11.004C53.4699 11.348 53.2379 11.616 52.9259 11.808C52.6139 11.992 52.2539 12.084 51.8459 12.084C51.4699 12.084 51.1219 12.008 50.8019 11.856C50.4899 11.704 50.2419 11.492 50.0579 11.22C49.8739 10.948 49.7819 10.648 49.7819 10.32C49.7819 9.88 49.8939 9.54 50.1179 9.3C50.3419 9.052 50.7099 8.876 51.2219 8.772C51.7339 8.66 52.4459 8.604 53.3579 8.604H53.6219V8.208C53.6219 7.72 53.5219 7.368 53.3219 7.152C53.1219 6.928 52.7979 6.816 52.3499 6.816C51.6779 6.816 51.0099 7.024 50.3459 7.44L50.0219 6.732C50.3259 6.516 50.6899 6.344 51.1139 6.216C51.5459 6.08 51.9619 6.012 52.3619 6.012ZM51.9779 11.316C52.4579 11.316 52.8499 11.156 53.1539 10.836C53.4659 10.508 53.6219 10.088 53.6219 9.576V9.228H53.4059C52.7019 9.228 52.1659 9.26 51.7979 9.324C51.4299 9.38 51.1659 9.48 51.0059 9.624C50.8539 9.76 50.7779 9.964 50.7779 10.236C50.7779 10.548 50.8899 10.808 51.1139 11.016C51.3459 11.216 51.6339 11.316 51.9779 11.316ZM59.2892 6.012C60.6892 6.012 61.3892 6.784 61.3892 8.328V12H60.4172V8.388C60.4172 7.844 60.3092 7.448 60.0932 7.2C59.8852 6.952 59.5492 6.828 59.0852 6.828C58.5492 6.828 58.1212 6.992 57.8012 7.32C57.4812 7.648 57.3212 8.092 57.3212 8.652V12H56.3492V6.156H57.3092V7.116C57.5012 6.756 57.7692 6.484 58.1132 6.3C58.4572 6.108 58.8492 6.012 59.2892 6.012ZM63.1335 9.204V8.4H66.4935V9.204H63.1335ZM73.8352 11.172V12H68.3872V11.256L71.3512 7.992C71.7512 7.544 72.0392 7.144 72.2152 6.792C72.3992 6.432 72.4912 6.072 72.4912 5.712C72.4912 5.248 72.3552 4.892 72.0832 4.644C71.8112 4.396 71.4272 4.272 70.9312 4.272C70.1152 4.272 69.3152 4.596 68.5312 5.244L68.1592 4.488C68.4952 4.168 68.9152 3.916 69.4192 3.732C69.9312 3.54 70.4432 3.444 70.9552 3.444C71.7312 3.444 72.3432 3.644 72.7912 4.044C73.2472 4.444 73.4752 4.984 73.4752 5.664C73.4752 6.152 73.3632 6.62 73.1392 7.068C72.9232 7.516 72.5632 8.016 72.0592 8.568L69.6592 11.172H73.8352ZM78.1625 12.096C77.1945 12.096 76.4585 11.728 75.9545 10.992C75.4505 10.256 75.1985 9.184 75.1985 7.776C75.1985 6.36 75.4505 5.284 75.9545 4.548C76.4585 3.812 77.1945 3.444 78.1625 3.444C79.1305 3.444 79.8665 3.812 80.3705 4.548C80.8745 5.276 81.1265 6.348 81.1265 7.764C81.1265 9.18 80.8745 10.256 80.3705 10.992C79.8665 11.728 79.1305 12.096 78.1625 12.096ZM78.1625 11.268C78.8345 11.268 79.3305 10.984 79.6505 10.416C79.9705 9.848 80.1305 8.964 80.1305 7.764C80.1305 6.556 79.9705 5.676 79.6505 5.124C79.3385 4.564 78.8425 4.284 78.1625 4.284C77.4905 4.284 76.9945 4.564 76.6745 5.124C76.3545 5.684 76.1945 6.564 76.1945 7.764C76.1945 8.964 76.3545 9.848 76.6745 10.416C76.9945 10.984 77.4905 11.268 78.1625 11.268ZM86.1618 11.172H88.0218V12H83.3178V11.172H85.1778V4.764L83.6898 5.7L83.2338 4.944L85.4538 3.54H86.1618V11.172ZM94.0171 7.656C94.5131 7.808 94.8971 8.068 95.1691 8.436C95.4491 8.804 95.5891 9.244 95.5891 9.756C95.5891 10.484 95.3251 11.056 94.7971 11.472C94.2691 11.88 93.5211 12.084 92.5531 12.084C91.5851 12.084 90.8371 11.88 90.3091 11.472C89.7811 11.056 89.5171 10.484 89.5171 9.756C89.5171 9.236 89.6571 8.792 89.9371 8.424C90.2171 8.056 90.6051 7.8 91.1011 7.656C90.6771 7.496 90.3411 7.244 90.0931 6.9C89.8451 6.556 89.7211 6.152 89.7211 5.688C89.7211 5 89.9691 4.456 90.4651 4.056C90.9691 3.648 91.6651 3.444 92.5531 3.444C93.4411 3.444 94.1331 3.648 94.6291 4.056C95.1331 4.456 95.3851 5 95.3851 5.688C95.3851 6.152 95.2611 6.56 95.0131 6.912C94.7651 7.256 94.4331 7.504 94.0171 7.656ZM90.6931 5.76C90.6931 6.256 90.8491 6.636 91.1611 6.9C91.4811 7.164 91.9451 7.296 92.5531 7.296C93.1611 7.296 93.6211 7.164 93.9331 6.9C94.2531 6.636 94.4131 6.256 94.4131 5.76C94.4131 5.288 94.2531 4.92 93.9331 4.656C93.6211 4.392 93.1611 4.26 92.5531 4.26C91.9451 4.26 91.4811 4.392 91.1611 4.656C90.8491 4.92 90.6931 5.288 90.6931 5.76ZM92.5531 11.268C93.9291 11.268 94.6171 10.744 94.6171 9.696C94.6171 8.648 93.9291 8.124 92.5531 8.124C91.1771 8.124 90.4891 8.648 90.4891 9.696C90.4891 10.744 91.1771 11.268 92.5531 11.268Z" fill="#BFBFBF"/>
<path d="M33.848 29H32.48L31.04 26.288C30.88 26 30.688 25.8 30.464 25.688C30.248 25.568 29.96 25.508 29.6 25.508H28.208V29H26.984V20.54H30.584C31.52 20.54 32.232 20.748 32.72 21.164C33.216 21.58 33.464 22.188 33.464 22.988C33.464 23.636 33.28 24.168 32.912 24.584C32.552 25 32.036 25.264 31.364 25.376C31.78 25.504 32.124 25.816 32.396 26.312L33.848 29ZM30.44 24.512C31.064 24.512 31.524 24.392 31.82 24.152C32.124 23.904 32.276 23.524 32.276 23.012C32.276 22.5 32.128 22.128 31.832 21.896C31.536 21.656 31.072 21.536 30.44 21.536H28.196V24.512H30.44ZM40.1412 26.276H36.0012C36.0892 27.516 36.7052 28.136 37.8492 28.136C38.5212 28.136 39.1292 27.916 39.6732 27.476L40.0452 28.328C39.7732 28.56 39.4372 28.744 39.0372 28.88C38.6372 29.016 38.2292 29.084 37.8132 29.084C36.8772 29.084 36.1372 28.816 35.5932 28.28C35.0572 27.744 34.7892 27.004 34.7892 26.06C34.7892 25.46 34.9052 24.928 35.1372 24.464C35.3772 24 35.7092 23.64 36.1332 23.384C36.5652 23.128 37.0532 23 37.5972 23C38.3892 23 39.0092 23.256 39.4572 23.768C39.9132 24.28 40.1412 24.988 40.1412 25.892V26.276ZM37.6212 23.888C37.1572 23.888 36.7852 24.036 36.5052 24.332C36.2332 24.62 36.0692 25.036 36.0132 25.58H39.0972C39.0732 25.036 38.9332 24.62 38.6772 24.332C38.4292 24.036 38.0772 23.888 37.6212 23.888ZM43.5407 29.084C42.5247 29.084 41.7127 28.836 41.1047 28.34L41.4767 27.464C42.0767 27.928 42.7767 28.16 43.5767 28.16C43.9687 28.16 44.2687 28.096 44.4767 27.968C44.6847 27.832 44.7887 27.644 44.7887 27.404C44.7887 27.196 44.7167 27.032 44.5727 26.912C44.4367 26.792 44.1967 26.692 43.8527 26.612L42.8807 26.396C42.3607 26.276 41.9687 26.08 41.7047 25.808C41.4407 25.536 41.3087 25.192 41.3087 24.776C41.3087 24.248 41.5207 23.82 41.9447 23.492C42.3767 23.164 42.9407 23 43.6367 23C44.0527 23 44.4487 23.068 44.8247 23.204C45.2007 23.332 45.5247 23.516 45.7967 23.756L45.4247 24.608C44.8487 24.152 44.2527 23.924 43.6367 23.924C43.2687 23.924 42.9767 23.996 42.7607 24.14C42.5527 24.284 42.4487 24.48 42.4487 24.728C42.4487 24.928 42.5127 25.092 42.6407 25.22C42.7767 25.34 42.9887 25.432 43.2767 25.496L44.2727 25.724C44.8407 25.852 45.2567 26.052 45.5207 26.324C45.7847 26.588 45.9167 26.936 45.9167 27.368C45.9167 27.896 45.7007 28.316 45.2687 28.628C44.8447 28.932 44.2687 29.084 43.5407 29.084ZM50.4098 23C50.9138 23 51.3618 23.128 51.7538 23.384C52.1538 23.64 52.4618 24 52.6778 24.464C52.9018 24.928 53.0138 25.464 53.0138 26.072C53.0138 26.672 52.9058 27.2 52.6898 27.656C52.4738 28.112 52.1658 28.464 51.7658 28.712C51.3738 28.96 50.9218 29.084 50.4098 29.084C49.9698 29.084 49.5818 28.992 49.2458 28.808C48.9098 28.616 48.6538 28.344 48.4778 27.992V31.16H47.2658V23.144H48.4778V24.104C48.6538 23.752 48.9098 23.48 49.2458 23.288C49.5818 23.096 49.9698 23 50.4098 23ZM50.1218 28.124C50.6498 28.124 51.0578 27.948 51.3458 27.596C51.6338 27.236 51.7778 26.728 51.7778 26.072C51.7778 25.408 51.6298 24.892 51.3338 24.524C51.0458 24.156 50.6418 23.972 50.1218 23.972C49.5938 23.972 49.1858 24.152 48.8978 24.512C48.6178 24.872 48.4778 25.384 48.4778 26.048C48.4778 26.712 48.6178 27.224 48.8978 27.584C49.1858 27.944 49.5938 28.124 50.1218 28.124ZM56.8996 29.084C56.3236 29.084 55.8156 28.96 55.3756 28.712C54.9436 28.464 54.6076 28.112 54.3676 27.656C54.1356 27.192 54.0196 26.656 54.0196 26.048C54.0196 25.432 54.1356 24.896 54.3676 24.44C54.6076 23.976 54.9436 23.62 55.3756 23.372C55.8156 23.124 56.3236 23 56.8996 23C57.4756 23 57.9796 23.124 58.4116 23.372C58.8516 23.62 59.1876 23.976 59.4196 24.44C59.6596 24.896 59.7796 25.432 59.7796 26.048C59.7796 26.656 59.6596 27.192 59.4196 27.656C59.1876 28.112 58.8516 28.464 58.4116 28.712C57.9796 28.96 57.4756 29.084 56.8996 29.084ZM56.8996 28.124C57.4356 28.124 57.8436 27.948 58.1236 27.596C58.4116 27.244 58.5556 26.728 58.5556 26.048C58.5556 25.376 58.4116 24.864 58.1236 24.512C57.8356 24.152 57.4276 23.972 56.8996 23.972C56.3716 23.972 55.9636 24.152 55.6756 24.512C55.3876 24.864 55.2436 25.376 55.2436 26.048C55.2436 26.728 55.3836 27.244 55.6636 27.596C55.9516 27.948 56.3636 28.124 56.8996 28.124ZM64.2851 23C65.6851 23 66.3851 23.788 66.3851 25.364V29H65.1731V25.424C65.1731 24.928 65.0731 24.564 64.8731 24.332C64.6811 24.1 64.3771 23.984 63.9611 23.984C63.4731 23.984 63.0811 24.136 62.7851 24.44C62.4891 24.744 62.3411 25.152 62.3411 25.664V29H61.1291V23.144H62.3171V24.08C62.5091 23.728 62.7771 23.46 63.1211 23.276C63.4651 23.092 63.8531 23 64.2851 23ZM70.1071 29.084C69.0911 29.084 68.2791 28.836 67.6711 28.34L68.0431 27.464C68.6431 27.928 69.3431 28.16 70.1431 28.16C70.5351 28.16 70.8351 28.096 71.0431 27.968C71.2511 27.832 71.3551 27.644 71.3551 27.404C71.3551 27.196 71.2831 27.032 71.1391 26.912C71.0031 26.792 70.7631 26.692 70.4191 26.612L69.4471 26.396C68.9271 26.276 68.5351 26.08 68.2711 25.808C68.0071 25.536 67.8751 25.192 67.8751 24.776C67.8751 24.248 68.0871 23.82 68.5111 23.492C68.9431 23.164 69.5071 23 70.2031 23C70.6191 23 71.0151 23.068 71.3911 23.204C71.7671 23.332 72.0911 23.516 72.3631 23.756L71.9911 24.608C71.4151 24.152 70.8191 23.924 70.2031 23.924C69.8351 23.924 69.5431 23.996 69.3271 24.14C69.1191 24.284 69.0151 24.48 69.0151 24.728C69.0151 24.928 69.0791 25.092 69.2071 25.22C69.3431 25.34 69.5551 25.432 69.8431 25.496L70.8391 25.724C71.4071 25.852 71.8231 26.052 72.0871 26.324C72.3511 26.588 72.4831 26.936 72.4831 27.368C72.4831 27.896 72.2671 28.316 71.8351 28.628C71.4111 28.932 70.8351 29.084 70.1071 29.084ZM78.8482 26.276H74.7082C74.7962 27.516 75.4122 28.136 76.5562 28.136C77.2282 28.136 77.8362 27.916 78.3802 27.476L78.7522 28.328C78.4802 28.56 78.1442 28.744 77.7442 28.88C77.3442 29.016 76.9362 29.084 76.5202 29.084C75.5842 29.084 74.8442 28.816 74.3002 28.28C73.7642 27.744 73.4962 27.004 73.4962 26.06C73.4962 25.46 73.6122 24.928 73.8442 24.464C74.0842 24 74.4162 23.64 74.8402 23.384C75.2722 23.128 75.7602 23 76.3042 23C77.0962 23 77.7162 23.256 78.1642 23.768C78.6202 24.28 78.8482 24.988 78.8482 25.892V26.276ZM76.3282 23.888C75.8642 23.888 75.4922 24.036 75.2122 24.332C74.9402 24.62 74.7762 25.036 74.7202 25.58H77.8042C77.7802 25.036 77.6402 24.62 77.3842 24.332C77.1362 24.036 76.7842 23.888 76.3282 23.888ZM85.4118 29.084C84.3958 29.084 83.5838 28.836 82.9758 28.34L83.3478 27.464C83.9478 27.928 84.6478 28.16 85.4478 28.16C85.8398 28.16 86.1398 28.096 86.3478 27.968C86.5558 27.832 86.6598 27.644 86.6598 27.404C86.6598 27.196 86.5878 27.032 86.4438 26.912C86.3078 26.792 86.0678 26.692 85.7238 26.612L84.7518 26.396C84.2318 26.276 83.8398 26.08 83.5758 25.808C83.3118 25.536 83.1798 25.192 83.1798 24.776C83.1798 24.248 83.3918 23.82 83.8158 23.492C84.2478 23.164 84.8118 23 85.5078 23C85.9238 23 86.3198 23.068 86.6958 23.204C87.0718 23.332 87.3958 23.516 87.6678 23.756L87.2958 24.608C86.7198 24.152 86.1238 23.924 85.5078 23.924C85.1398 23.924 84.8478 23.996 84.6318 24.14C84.4238 24.284 84.3198 24.48 84.3198 24.728C84.3198 24.928 84.3838 25.092 84.5118 25.22C84.6478 25.34 84.8598 25.432 85.1478 25.496L86.1438 25.724C86.7118 25.852 87.1278 26.052 87.3918 26.324C87.6558 26.588 87.7878 26.936 87.7878 27.368C87.7878 27.896 87.5718 28.316 87.1398 28.628C86.7158 28.932 86.1398 29.084 85.4118 29.084ZM94.2729 23.144V29H93.0969V28.052C92.9129 28.388 92.6569 28.644 92.3289 28.82C92.0089 28.996 91.6489 29.084 91.2489 29.084C89.8249 29.084 89.1129 28.3 89.1129 26.732V23.144H90.3249V26.72C90.3249 27.192 90.4209 27.54 90.6129 27.764C90.8049 27.988 91.1009 28.1 91.5009 28.1C91.9729 28.1 92.3489 27.948 92.6289 27.644C92.9169 27.34 93.0609 26.936 93.0609 26.432V23.144H94.2729ZM99.1129 23C99.6249 23 100.077 23.124 100.469 23.372C100.861 23.62 101.165 23.972 101.381 24.428C101.605 24.884 101.717 25.416 101.717 26.024C101.717 26.624 101.605 27.156 101.381 27.62C101.165 28.084 100.857 28.444 100.457 28.7C100.065 28.956 99.6169 29.084 99.1129 29.084C98.6729 29.084 98.2849 28.992 97.9489 28.808C97.6129 28.616 97.3569 28.344 97.1809 27.992V29H95.9689V20.54H97.1809V24.104C97.3569 23.752 97.6129 23.48 97.9489 23.288C98.2849 23.096 98.6729 23 99.1129 23ZM98.8249 28.124C99.3449 28.124 99.7489 27.94 100.037 27.572C100.333 27.204 100.481 26.688 100.481 26.024C100.481 25.368 100.337 24.864 100.049 24.512C99.7609 24.152 99.3529 23.972 98.8249 23.972C98.2969 23.972 97.8889 24.152 97.6009 24.512C97.3209 24.872 97.1809 25.384 97.1809 26.048C97.1809 26.712 97.3209 27.224 97.6009 27.584C97.8889 27.944 98.2969 28.124 98.8249 28.124ZM109.779 23C111.091 23 111.747 23.788 111.747 25.364V29H110.535V25.412C110.535 24.916 110.447 24.556 110.271 24.332C110.103 24.1 109.827 23.984 109.443 23.984C109.003 23.984 108.655 24.136 108.399 24.44C108.143 24.744 108.015 25.16 108.015 25.688V29H106.803V25.412C106.803 24.916 106.715 24.556 106.539 24.332C106.363 24.1 106.087 23.984 105.711 23.984C105.263 23.984 104.911 24.136 104.655 24.44C104.399 24.744 104.271 25.16 104.271 25.688V29H103.059V23.144H104.247V24.032C104.431 23.704 104.679 23.452 104.991 23.276C105.303 23.092 105.659 23 106.059 23C106.963 23 107.551 23.376 107.823 24.128C108.007 23.776 108.271 23.5 108.615 23.3C108.959 23.1 109.347 23 109.779 23ZM113.406 29V23.144H114.618V29H113.406ZM113.322 20.528H114.714V21.788H113.322V20.528ZM119.085 28.148C119.269 28.148 119.449 28.136 119.625 28.112L119.565 29.036C119.365 29.068 119.157 29.084 118.941 29.084C118.181 29.084 117.613 28.9 117.237 28.532C116.869 28.156 116.685 27.616 116.685 26.912V24.08H115.545V23.144H116.685V21.38H117.897V23.144H119.505V24.08H117.897V26.864C117.897 27.72 118.293 28.148 119.085 28.148ZM125.559 26.276H121.419C121.507 27.516 122.123 28.136 123.267 28.136C123.939 28.136 124.547 27.916 125.091 27.476L125.463 28.328C125.191 28.56 124.855 28.744 124.455 28.88C124.055 29.016 123.647 29.084 123.231 29.084C122.295 29.084 121.555 28.816 121.011 28.28C120.475 27.744 120.207 27.004 120.207 26.06C120.207 25.46 120.323 24.928 120.555 24.464C120.795 24 121.127 23.64 121.551 23.384C121.983 23.128 122.471 23 123.015 23C123.807 23 124.427 23.256 124.875 23.768C125.331 24.28 125.559 24.988 125.559 25.892V26.276ZM123.039 23.888C122.575 23.888 122.203 24.036 121.923 24.332C121.651 24.62 121.487 25.036 121.431 25.58H124.515C124.491 25.036 124.351 24.62 124.095 24.332C123.847 24.036 123.495 23.888 123.039 23.888ZM132.295 20.54V29H131.095V27.992C130.919 28.344 130.663 28.616 130.327 28.808C129.991 28.992 129.603 29.084 129.163 29.084C128.659 29.084 128.207 28.956 127.807 28.7C127.415 28.444 127.107 28.084 126.883 27.62C126.667 27.156 126.559 26.624 126.559 26.024C126.559 25.416 126.667 24.884 126.883 24.428C127.107 23.972 127.415 23.62 127.807 23.372C128.199 23.124 128.651 23 129.163 23C129.603 23 129.987 23.096 130.315 23.288C130.651 23.472 130.907 23.736 131.083 24.08V20.54H132.295ZM129.451 28.124C129.979 28.124 130.383 27.944 130.663 27.584C130.951 27.224 131.095 26.712 131.095 26.048C131.095 25.384 130.951 24.872 130.663 24.512C130.383 24.152 129.979 23.972 129.451 23.972C128.923 23.972 128.511 24.152 128.215 24.512C127.927 24.864 127.783 25.368 127.783 26.024C127.783 26.68 127.931 27.196 128.227 27.572C128.523 27.94 128.931 28.124 129.451 28.124Z" fill="#525252"/>
<path d="M30.404 66.172H32.264V67H27.56V66.172H29.42V59.764L27.932 60.7L27.476 59.944L29.696 58.54H30.404V66.172ZM38.2593 62.656C38.7553 62.808 39.1393 63.068 39.4113 63.436C39.6913 63.804 39.8313 64.244 39.8313 64.756C39.8313 65.484 39.5673 66.056 39.0393 66.472C38.5113 66.88 37.7633 67.084 36.7953 67.084C35.8273 67.084 35.0793 66.88 34.5513 66.472C34.0233 66.056 33.7593 65.484 33.7593 64.756C33.7593 64.236 33.8993 63.792 34.1793 63.424C34.4593 63.056 34.8473 62.8 35.3433 62.656C34.9193 62.496 34.5833 62.244 34.3353 61.9C34.0873 61.556 33.9633 61.152 33.9633 60.688C33.9633 60 34.2113 59.456 34.7073 59.056C35.2113 58.648 35.9073 58.444 36.7953 58.444C37.6833 58.444 38.3753 58.648 38.8713 59.056C39.3753 59.456 39.6273 60 39.6273 60.688C39.6273 61.152 39.5033 61.56 39.2553 61.912C39.0073 62.256 38.6753 62.504 38.2593 62.656ZM34.9353 60.76C34.9353 61.256 35.0913 61.636 35.4033 61.9C35.7233 62.164 36.1873 62.296 36.7953 62.296C37.4033 62.296 37.8633 62.164 38.1753 61.9C38.4953 61.636 38.6553 61.256 38.6553 60.76C38.6553 60.288 38.4953 59.92 38.1753 59.656C37.8633 59.392 37.4033 59.26 36.7953 59.26C36.1873 59.26 35.7233 59.392 35.4033 59.656C35.0913 59.92 34.9353 60.288 34.9353 60.76ZM36.7953 66.268C38.1713 66.268 38.8593 65.744 38.8593 64.696C38.8593 63.648 38.1713 63.124 36.7953 63.124C35.4193 63.124 34.7313 63.648 34.7313 64.696C34.7313 65.744 35.4193 66.268 36.7953 66.268ZM41.2546 64.204V63.4H44.6146V64.204H41.2546ZM45.0759 66.256L45.7959 66.208C46.1959 66.176 46.5039 66.036 46.7199 65.788C46.9439 65.532 47.0559 65.184 47.0559 64.744V58.54H48.0399V64.756C48.0399 65.452 47.8599 65.996 47.4999 66.388C47.1399 66.78 46.6159 66.996 45.9279 67.036L45.1479 67.084L45.0759 66.256ZM52.3619 61.012C53.1059 61.012 53.6579 61.204 54.0179 61.588C54.3859 61.964 54.5699 62.54 54.5699 63.316V67H53.6219V66.004C53.4699 66.348 53.2379 66.616 52.9259 66.808C52.6139 66.992 52.2539 67.084 51.8459 67.084C51.4699 67.084 51.1219 67.008 50.8019 66.856C50.4899 66.704 50.2419 66.492 50.0579 66.22C49.8739 65.948 49.7819 65.648 49.7819 65.32C49.7819 64.88 49.8939 64.54 50.1179 64.3C50.3419 64.052 50.7099 63.876 51.2219 63.772C51.7339 63.66 52.4459 63.604 53.3579 63.604H53.6219V63.208C53.6219 62.72 53.5219 62.368 53.3219 62.152C53.1219 61.928 52.7979 61.816 52.3499 61.816C51.6779 61.816 51.0099 62.024 50.3459 62.44L50.0219 61.732C50.3259 61.516 50.6899 61.344 51.1139 61.216C51.5459 61.08 51.9619 61.012 52.3619 61.012ZM51.9779 66.316C52.4579 66.316 52.8499 66.156 53.1539 65.836C53.4659 65.508 53.6219 65.088 53.6219 64.576V64.228H53.4059C52.7019 64.228 52.1659 64.26 51.7979 64.324C51.4299 64.38 51.1659 64.48 51.0059 64.624C50.8539 64.76 50.7779 64.964 50.7779 65.236C50.7779 65.548 50.8899 65.808 51.1139 66.016C51.3459 66.216 51.6339 66.316 51.9779 66.316ZM59.2892 61.012C60.6892 61.012 61.3892 61.784 61.3892 63.328V67H60.4172V63.388C60.4172 62.844 60.3092 62.448 60.0932 62.2C59.8852 61.952 59.5492 61.828 59.0852 61.828C58.5492 61.828 58.1212 61.992 57.8012 62.32C57.4812 62.648 57.3212 63.092 57.3212 63.652V67H56.3492V61.156H57.3092V62.116C57.5012 61.756 57.7692 61.484 58.1132 61.3C58.4572 61.108 58.8492 61.012 59.2892 61.012ZM63.1335 64.204V63.4H66.4935V64.204H63.1335ZM73.8352 66.172V67H68.3872V66.256L71.3512 62.992C71.7512 62.544 72.0392 62.144 72.2152 61.792C72.3992 61.432 72.4912 61.072 72.4912 60.712C72.4912 60.248 72.3552 59.892 72.0832 59.644C71.8112 59.396 71.4272 59.272 70.9312 59.272C70.1152 59.272 69.3152 59.596 68.5312 60.244L68.1592 59.488C68.4952 59.168 68.9152 58.916 69.4192 58.732C69.9312 58.54 70.4432 58.444 70.9552 58.444C71.7312 58.444 72.3432 58.644 72.7912 59.044C73.2472 59.444 73.4752 59.984 73.4752 60.664C73.4752 61.152 73.3632 61.62 73.1392 62.068C72.9232 62.516 72.5632 63.016 72.0592 63.568L69.6592 66.172H73.8352ZM78.1625 67.096C77.1945 67.096 76.4585 66.728 75.9545 65.992C75.4505 65.256 75.1985 64.184 75.1985 62.776C75.1985 61.36 75.4505 60.284 75.9545 59.548C76.4585 58.812 77.1945 58.444 78.1625 58.444C79.1305 58.444 79.8665 58.812 80.3705 59.548C80.8745 60.276 81.1265 61.348 81.1265 62.764C81.1265 64.18 80.8745 65.256 80.3705 65.992C79.8665 66.728 79.1305 67.096 78.1625 67.096ZM78.1625 66.268C78.8345 66.268 79.3305 65.984 79.6505 65.416C79.9705 64.848 80.1305 63.964 80.1305 62.764C80.1305 61.556 79.9705 60.676 79.6505 60.124C79.3385 59.564 78.8425 59.284 78.1625 59.284C77.4905 59.284 76.9945 59.564 76.6745 60.124C76.3545 60.684 76.1945 61.564 76.1945 62.764C76.1945 63.964 76.3545 64.848 76.6745 65.416C76.9945 65.984 77.4905 66.268 78.1625 66.268ZM86.1618 66.172H88.0218V67H83.3178V66.172H85.1778V59.764L83.6898 60.7L83.2338 59.944L85.4538 58.54H86.1618V66.172ZM94.0171 62.656C94.5131 62.808 94.8971 63.068 95.1691 63.436C95.4491 63.804 95.5891 64.244 95.5891 64.756C95.5891 65.484 95.3251 66.056 94.7971 66.472C94.2691 66.88 93.5211 67.084 92.5531 67.084C91.5851 67.084 90.8371 66.88 90.3091 66.472C89.7811 66.056 89.5171 65.484 89.5171 64.756C89.5171 64.236 89.6571 63.792 89.9371 63.424C90.2171 63.056 90.6051 62.8 91.1011 62.656C90.6771 62.496 90.3411 62.244 90.0931 61.9C89.8451 61.556 89.7211 61.152 89.7211 60.688C89.7211 60 89.9691 59.456 90.4651 59.056C90.9691 58.648 91.6651 58.444 92.5531 58.444C93.4411 58.444 94.1331 58.648 94.6291 59.056C95.1331 59.456 95.3851 60 95.3851 60.688C95.3851 61.152 95.2611 61.56 95.0131 61.912C94.7651 62.256 94.4331 62.504 94.0171 62.656ZM90.6931 60.76C90.6931 61.256 90.8491 61.636 91.1611 61.9C91.4811 62.164 91.9451 62.296 92.5531 62.296C93.1611 62.296 93.6211 62.164 93.9331 61.9C94.2531 61.636 94.4131 61.256 94.4131 60.76C94.4131 60.288 94.2531 59.92 93.9331 59.656C93.6211 59.392 93.1611 59.26 92.5531 59.26C91.9451 59.26 91.4811 59.392 91.1611 59.656C90.8491 59.92 90.6931 60.288 90.6931 60.76ZM92.5531 66.268C93.9291 66.268 94.6171 65.744 94.6171 64.696C94.6171 63.648 93.9291 63.124 92.5531 63.124C91.1771 63.124 90.4891 63.648 90.4891 64.696C90.4891 65.744 91.1771 66.268 92.5531 66.268Z" fill="#BFBFBF"/>
<path d="M30.656 83.096C29.856 83.096 29.16 82.924 28.568 82.58C27.976 82.228 27.52 81.728 27.2 81.08C26.888 80.424 26.732 79.652 26.732 78.764C26.732 77.876 26.888 77.108 27.2 76.46C27.52 75.812 27.976 75.316 28.568 74.972C29.16 74.62 29.856 74.444 30.656 74.444C31.24 74.444 31.776 74.536 32.264 74.72C32.752 74.896 33.176 75.16 33.536 75.512L33.164 76.268C32.756 75.924 32.356 75.676 31.964 75.524C31.572 75.372 31.14 75.296 30.668 75.296C29.74 75.296 29.02 75.6 28.508 76.208C28.004 76.808 27.752 77.66 27.752 78.764C27.752 79.876 28.004 80.736 28.508 81.344C29.02 81.944 29.74 82.244 30.668 82.244C31.14 82.244 31.572 82.168 31.964 82.016C32.356 81.864 32.756 81.616 33.164 81.272L33.536 82.028C33.176 82.38 32.752 82.648 32.264 82.832C31.776 83.008 31.24 83.096 30.656 83.096ZM37.3279 83.084C36.7759 83.084 36.2879 82.96 35.8639 82.712C35.4479 82.464 35.1239 82.112 34.8919 81.656C34.6679 81.192 34.5559 80.656 34.5559 80.048C34.5559 79.44 34.6679 78.908 34.8919 78.452C35.1239 77.988 35.4479 77.632 35.8639 77.384C36.2879 77.136 36.7759 77.012 37.3279 77.012C37.8799 77.012 38.3679 77.136 38.7919 77.384C39.2159 77.632 39.5399 77.988 39.7639 78.452C39.9959 78.908 40.1119 79.44 40.1119 80.048C40.1119 80.656 39.9959 81.192 39.7639 81.656C39.5399 82.112 39.2159 82.464 38.7919 82.712C38.3679 82.96 37.8799 83.084 37.3279 83.084ZM37.3279 82.28C37.9039 82.28 38.3439 82.092 38.6479 81.716C38.9599 81.332 39.1159 80.776 39.1159 80.048C39.1159 79.336 38.9599 78.788 38.6479 78.404C38.3359 78.012 37.8959 77.816 37.3279 77.816C36.7599 77.816 36.3199 78.012 36.0079 78.404C35.6959 78.788 35.5399 79.336 35.5399 80.048C35.5399 80.768 35.6919 81.32 35.9959 81.704C36.3079 82.088 36.7519 82.28 37.3279 82.28ZM48.0642 77.012C49.3602 77.012 50.0082 77.784 50.0082 79.328V83H49.0362V79.376C49.0362 78.84 48.9402 78.448 48.7482 78.2C48.5642 77.952 48.2642 77.828 47.8482 77.828C47.3602 77.828 46.9762 77.992 46.6962 78.32C46.4162 78.648 46.2762 79.096 46.2762 79.664V83H45.3042V79.376C45.3042 78.832 45.2082 78.44 45.0162 78.2C44.8242 77.952 44.5202 77.828 44.1042 77.828C43.6162 77.828 43.2322 77.992 42.9522 78.32C42.6722 78.648 42.5322 79.096 42.5322 79.664V83H41.5602V77.156H42.5202V78.08C42.6962 77.736 42.9402 77.472 43.2522 77.288C43.5642 77.104 43.9242 77.012 44.3322 77.012C45.2362 77.012 45.8322 77.396 46.1202 78.164C46.2882 77.804 46.5442 77.524 46.8882 77.324C47.2322 77.116 47.6242 77.012 48.0642 77.012ZM54.7189 77.012C55.2309 77.012 55.6829 77.14 56.0749 77.396C56.4669 77.652 56.7709 78.012 56.9869 78.476C57.2029 78.932 57.3109 79.464 57.3109 80.072C57.3109 80.68 57.2029 81.212 56.9869 81.668C56.7709 82.116 56.4669 82.464 56.0749 82.712C55.6909 82.96 55.2389 83.084 54.7189 83.084C54.2629 83.084 53.8629 82.984 53.5189 82.784C53.1829 82.584 52.9269 82.3 52.7509 81.932V85.16H51.7789V77.156H52.7509V78.164C52.9269 77.796 53.1829 77.512 53.5189 77.312C53.8629 77.112 54.2629 77.012 54.7189 77.012ZM54.5269 82.28C55.0949 82.28 55.5349 82.088 55.8469 81.704C56.1589 81.32 56.3149 80.776 56.3149 80.072C56.3149 79.368 56.1589 78.82 55.8469 78.428C55.5349 78.028 55.0949 77.828 54.5269 77.828C53.9589 77.828 53.5189 78.02 53.2069 78.404C52.9029 78.788 52.7509 79.336 52.7509 80.048C52.7509 80.76 52.9029 81.312 53.2069 81.704C53.5189 82.088 53.9589 82.28 54.5269 82.28ZM58.7633 83V74.54H59.7353V83H58.7633ZM63.9283 77.012C64.6723 77.012 65.2243 77.204 65.5843 77.588C65.9523 77.964 66.1363 78.54 66.1363 79.316V83H65.1883V82.004C65.0363 82.348 64.8043 82.616 64.4923 82.808C64.1803 82.992 63.8203 83.084 63.4123 83.084C63.0363 83.084 62.6883 83.008 62.3683 82.856C62.0563 82.704 61.8083 82.492 61.6243 82.22C61.4403 81.948 61.3483 81.648 61.3483 81.32C61.3483 80.88 61.4603 80.54 61.6843 80.3C61.9083 80.052 62.2763 79.876 62.7883 79.772C63.3003 79.66 64.0123 79.604 64.9243 79.604H65.1883V79.208C65.1883 78.72 65.0883 78.368 64.8883 78.152C64.6883 77.928 64.3643 77.816 63.9163 77.816C63.2443 77.816 62.5763 78.024 61.9123 78.44L61.5883 77.732C61.8923 77.516 62.2563 77.344 62.6803 77.216C63.1123 77.08 63.5283 77.012 63.9283 77.012ZM63.5443 82.316C64.0243 82.316 64.4163 82.156 64.7203 81.836C65.0323 81.508 65.1883 81.088 65.1883 80.576V80.228H64.9723C64.2683 80.228 63.7323 80.26 63.3643 80.324C62.9963 80.38 62.7323 80.48 62.5723 80.624C62.4203 80.76 62.3443 80.964 62.3443 81.236C62.3443 81.548 62.4563 81.808 62.6803 82.016C62.9123 82.216 63.2003 82.316 63.5443 82.316ZM67.9156 83V77.156H68.8876V83H67.9156ZM67.8196 74.624H68.9956V75.716H67.8196V74.624ZM73.6447 77.012C75.0447 77.012 75.7447 77.784 75.7447 79.328V83H74.7727V79.388C74.7727 78.844 74.6647 78.448 74.4487 78.2C74.2407 77.952 73.9047 77.828 73.4407 77.828C72.9047 77.828 72.4767 77.992 72.1567 78.32C71.8367 78.648 71.6767 79.092 71.6767 79.652V83H70.7047V77.156H71.6647V78.116C71.8567 77.756 72.1247 77.484 72.4687 77.3C72.8127 77.108 73.2047 77.012 73.6447 77.012ZM83.5588 77.012C84.0708 77.012 84.5228 77.136 84.9148 77.384C85.3068 77.632 85.6108 77.984 85.8268 78.44C86.0428 78.896 86.1508 79.424 86.1508 80.024C86.1508 80.632 86.0428 81.168 85.8268 81.632C85.6108 82.088 85.3068 82.444 84.9148 82.7C84.5228 82.956 84.0708 83.084 83.5588 83.084C83.1028 83.084 82.7028 82.984 82.3588 82.784C82.0228 82.584 81.7668 82.3 81.5908 81.932V83H80.6188V74.54H81.5908V78.164C81.7668 77.796 82.0228 77.512 82.3588 77.312C82.7028 77.112 83.1028 77.012 83.5588 77.012ZM83.3668 82.28C83.9348 82.28 84.3748 82.084 84.6868 81.692C84.9988 81.292 85.1548 80.736 85.1548 80.024C85.1548 79.328 84.9988 78.788 84.6868 78.404C84.3748 78.02 83.9348 77.828 83.3668 77.828C82.7988 77.828 82.3588 78.02 82.0468 78.404C81.7428 78.788 81.5908 79.336 81.5908 80.048C81.5908 80.76 81.7428 81.312 82.0468 81.704C82.3588 82.088 82.7988 82.28 83.3668 82.28ZM92.4991 80.228H88.2271C88.2591 80.908 88.4431 81.424 88.7791 81.776C89.1151 82.12 89.5911 82.292 90.2071 82.292C90.8871 82.292 91.5111 82.06 92.0791 81.596L92.4031 82.304C92.1471 82.544 91.8191 82.736 91.4191 82.88C91.0191 83.016 90.6111 83.084 90.1951 83.084C89.2831 83.084 88.5631 82.816 88.0351 82.28C87.5151 81.744 87.2551 81.004 87.2551 80.06C87.2551 79.46 87.3711 78.932 87.6031 78.476C87.8351 78.012 88.1591 77.652 88.5751 77.396C88.9991 77.14 89.4791 77.012 90.0151 77.012C90.7911 77.012 91.3991 77.268 91.8391 77.78C92.2791 78.284 92.4991 78.98 92.4991 79.868V80.228ZM90.0271 77.768C89.5151 77.768 89.1031 77.928 88.7911 78.248C88.4871 78.568 88.3071 79.02 88.2511 79.604H91.6471C91.6311 79.012 91.4831 78.56 91.2031 78.248C90.9231 77.928 90.5311 77.768 90.0271 77.768ZM93.9313 83V77.156H94.9033V83H93.9313ZM93.8353 74.624H95.0113V75.716H93.8353V74.624ZM99.6603 77.012C101.06 77.012 101.76 77.784 101.76 79.328V83H100.788V79.388C100.788 78.844 100.68 78.448 100.464 78.2C100.256 77.952 99.9203 77.828 99.4563 77.828C98.9203 77.828 98.4923 77.992 98.1723 78.32C97.8523 78.648 97.6923 79.092 97.6923 79.652V83H96.7203V77.156H97.6803V78.116C97.8723 77.756 98.1403 77.484 98.4843 77.3C98.8283 77.108 99.2203 77.012 99.6603 77.012ZM108.773 77.156V82.604C108.773 83.476 108.549 84.132 108.101 84.572C107.653 85.02 106.989 85.244 106.109 85.244C105.085 85.244 104.225 84.98 103.529 84.452L103.853 83.732C104.245 83.988 104.613 84.172 104.957 84.284C105.301 84.396 105.685 84.452 106.109 84.452C106.669 84.452 107.093 84.3 107.381 83.996C107.669 83.7 107.813 83.264 107.813 82.688V81.656C107.645 82.032 107.385 82.32 107.033 82.52C106.689 82.72 106.281 82.82 105.809 82.82C105.297 82.82 104.841 82.7 104.441 82.46C104.049 82.22 103.741 81.88 103.517 81.44C103.301 81 103.193 80.492 103.193 79.916C103.193 79.34 103.301 78.832 103.517 78.392C103.741 77.952 104.049 77.612 104.441 77.372C104.841 77.132 105.297 77.012 105.809 77.012C106.273 77.012 106.677 77.112 107.021 77.312C107.365 77.512 107.625 77.796 107.801 78.164V77.156H108.773ZM106.001 82.016C106.561 82.016 107.001 81.832 107.321 81.464C107.641 81.088 107.801 80.572 107.801 79.916C107.801 79.268 107.641 78.76 107.321 78.392C107.009 78.016 106.569 77.828 106.001 77.828C105.433 77.828 104.985 78.016 104.657 78.392C104.337 78.76 104.177 79.268 104.177 79.916C104.177 80.572 104.337 81.088 104.657 81.464C104.985 81.832 105.433 82.016 106.001 82.016ZM29.84 93.012C30.352 93.012 30.804 93.14 31.196 93.396C31.588 93.652 31.892 94.012 32.108 94.476C32.324 94.932 32.432 95.464 32.432 96.072C32.432 96.68 32.324 97.212 32.108 97.668C31.892 98.116 31.588 98.464 31.196 98.712C30.812 98.96 30.36 99.084 29.84 99.084C29.384 99.084 28.984 98.984 28.64 98.784C28.304 98.584 28.048 98.3 27.872 97.932V101.16H26.9V93.156H27.872V94.164C28.048 93.796 28.304 93.512 28.64 93.312C28.984 93.112 29.384 93.012 29.84 93.012ZM29.648 98.28C30.216 98.28 30.656 98.088 30.968 97.704C31.28 97.32 31.436 96.776 31.436 96.072C31.436 95.368 31.28 94.82 30.968 94.428C30.656 94.028 30.216 93.828 29.648 93.828C29.08 93.828 28.64 94.02 28.328 94.404C28.024 94.788 27.872 95.336 27.872 96.048C27.872 96.76 28.024 97.312 28.328 97.704C28.64 98.088 29.08 98.28 29.648 98.28ZM37.1964 93.852L36.5604 93.912C35.9604 93.968 35.5244 94.156 35.2524 94.476C34.9884 94.796 34.8564 95.192 34.8564 95.664V99H33.8844V93.156H34.8324V94.176C35.1604 93.496 35.8044 93.116 36.7644 93.036L37.1124 93.012L37.1964 93.852ZM40.4217 99.084C39.8697 99.084 39.3817 98.96 38.9577 98.712C38.5417 98.464 38.2177 98.112 37.9857 97.656C37.7617 97.192 37.6497 96.656 37.6497 96.048C37.6497 95.44 37.7617 94.908 37.9857 94.452C38.2177 93.988 38.5417 93.632 38.9577 93.384C39.3817 93.136 39.8697 93.012 40.4217 93.012C40.9737 93.012 41.4617 93.136 41.8857 93.384C42.3097 93.632 42.6337 93.988 42.8577 94.452C43.0897 94.908 43.2057 95.44 43.2057 96.048C43.2057 96.656 43.0897 97.192 42.8577 97.656C42.6337 98.112 42.3097 98.464 41.8857 98.712C41.4617 98.96 40.9737 99.084 40.4217 99.084ZM40.4217 98.28C40.9977 98.28 41.4377 98.092 41.7417 97.716C42.0537 97.332 42.2097 96.776 42.2097 96.048C42.2097 95.336 42.0537 94.788 41.7417 94.404C41.4297 94.012 40.9897 93.816 40.4217 93.816C39.8537 93.816 39.4137 94.012 39.1017 94.404C38.7897 94.788 38.6337 95.336 38.6337 96.048C38.6337 96.768 38.7857 97.32 39.0897 97.704C39.4017 98.088 39.8457 98.28 40.4217 98.28ZM47.1259 99.084C46.5499 99.084 46.0499 98.96 45.6259 98.712C45.2019 98.464 44.8739 98.116 44.6419 97.668C44.4179 97.212 44.3059 96.68 44.3059 96.072C44.3059 95.464 44.4219 94.932 44.6539 94.476C44.8939 94.012 45.2259 93.652 45.6499 93.396C46.0819 93.14 46.5859 93.012 47.1619 93.012C47.5539 93.012 47.9379 93.084 48.3139 93.228C48.6899 93.364 48.9939 93.548 49.2259 93.78L48.9019 94.5C48.3499 94.052 47.7899 93.828 47.2219 93.828C46.6219 93.828 46.1539 94.024 45.8179 94.416C45.4819 94.808 45.3139 95.36 45.3139 96.072C45.3139 96.776 45.4819 97.32 45.8179 97.704C46.1539 98.088 46.6219 98.28 47.2219 98.28C47.7899 98.28 48.3499 98.056 48.9019 97.608L49.2259 98.328C48.9779 98.56 48.6659 98.744 48.2899 98.88C47.9139 99.016 47.5259 99.084 47.1259 99.084ZM55.2921 96.228H51.0201C51.0521 96.908 51.2361 97.424 51.5721 97.776C51.9081 98.12 52.3841 98.292 53.0001 98.292C53.6801 98.292 54.3041 98.06 54.8721 97.596L55.1961 98.304C54.9401 98.544 54.6121 98.736 54.2121 98.88C53.8121 99.016 53.4041 99.084 52.9881 99.084C52.0761 99.084 51.3561 98.816 50.8281 98.28C50.3081 97.744 50.0481 97.004 50.0481 96.06C50.0481 95.46 50.1641 94.932 50.3961 94.476C50.6281 94.012 50.9521 93.652 51.3681 93.396C51.7921 93.14 52.2721 93.012 52.8081 93.012C53.5841 93.012 54.1921 93.268 54.6321 93.78C55.0721 94.284 55.2921 94.98 55.2921 95.868V96.228ZM52.8201 93.768C52.3081 93.768 51.8961 93.928 51.5841 94.248C51.2801 94.568 51.1001 95.02 51.0441 95.604H54.4401C54.4241 95.012 54.2761 94.56 53.9961 94.248C53.7161 93.928 53.3241 93.768 52.8201 93.768ZM58.7042 99.084C57.7202 99.084 56.9402 98.832 56.3642 98.328L56.6882 97.608C57.0002 97.856 57.3162 98.036 57.6362 98.148C57.9642 98.252 58.3322 98.304 58.7402 98.304C59.1722 98.304 59.5002 98.232 59.7242 98.088C59.9562 97.936 60.0722 97.72 60.0722 97.44C60.0722 97.208 59.9962 97.024 59.8442 96.888C59.6922 96.752 59.4402 96.644 59.0882 96.564L58.1042 96.336C57.6082 96.224 57.2282 96.032 56.9642 95.76C56.7002 95.488 56.5682 95.152 56.5682 94.752C56.5682 94.232 56.7722 93.812 57.1802 93.492C57.5882 93.172 58.1322 93.012 58.8122 93.012C59.2202 93.012 59.6082 93.08 59.9762 93.216C60.3442 93.344 60.6522 93.532 60.9002 93.78L60.5762 94.488C60.0402 94.032 59.4522 93.804 58.8122 93.804C58.4042 93.804 58.0842 93.884 57.8522 94.044C57.6282 94.196 57.5162 94.412 57.5162 94.692C57.5162 94.924 57.5842 95.112 57.7202 95.256C57.8642 95.392 58.0922 95.496 58.4042 95.568L59.4002 95.808C59.9442 95.936 60.3482 96.132 60.6122 96.396C60.8762 96.652 61.0082 96.988 61.0082 97.404C61.0082 97.916 60.8002 98.324 60.3842 98.628C59.9762 98.932 59.4162 99.084 58.7042 99.084ZM64.4698 99.084C63.4858 99.084 62.7058 98.832 62.1298 98.328L62.4538 97.608C62.7658 97.856 63.0818 98.036 63.4018 98.148C63.7298 98.252 64.0978 98.304 64.5058 98.304C64.9378 98.304 65.2658 98.232 65.4898 98.088C65.7218 97.936 65.8378 97.72 65.8378 97.44C65.8378 97.208 65.7618 97.024 65.6098 96.888C65.4578 96.752 65.2058 96.644 64.8538 96.564L63.8698 96.336C63.3738 96.224 62.9938 96.032 62.7298 95.76C62.4658 95.488 62.3338 95.152 62.3338 94.752C62.3338 94.232 62.5378 93.812 62.9458 93.492C63.3538 93.172 63.8978 93.012 64.5778 93.012C64.9858 93.012 65.3738 93.08 65.7418 93.216C66.1098 93.344 66.4178 93.532 66.6658 93.78L66.3418 94.488C65.8058 94.032 65.2178 93.804 64.5778 93.804C64.1698 93.804 63.8498 93.884 63.6178 94.044C63.3938 94.196 63.2818 94.412 63.2818 94.692C63.2818 94.924 63.3498 95.112 63.4858 95.256C63.6298 95.392 63.8578 95.496 64.1698 95.568L65.1658 95.808C65.7098 95.936 66.1138 96.132 66.3778 96.396C66.6418 96.652 66.7738 96.988 66.7738 97.404C66.7738 97.916 66.5658 98.324 66.1498 98.628C65.7418 98.932 65.1818 99.084 64.4698 99.084ZM73.1515 96.228H68.8795C68.9115 96.908 69.0955 97.424 69.4315 97.776C69.7675 98.12 70.2435 98.292 70.8595 98.292C71.5395 98.292 72.1635 98.06 72.7315 97.596L73.0555 98.304C72.7995 98.544 72.4715 98.736 72.0715 98.88C71.6715 99.016 71.2635 99.084 70.8475 99.084C69.9355 99.084 69.2155 98.816 68.6875 98.28C68.1675 97.744 67.9075 97.004 67.9075 96.06C67.9075 95.46 68.0235 94.932 68.2555 94.476C68.4875 94.012 68.8115 93.652 69.2275 93.396C69.6515 93.14 70.1315 93.012 70.6675 93.012C71.4435 93.012 72.0515 93.268 72.4915 93.78C72.9315 94.284 73.1515 94.98 73.1515 95.868V96.228ZM70.6795 93.768C70.1675 93.768 69.7555 93.928 69.4435 94.248C69.1395 94.568 68.9595 95.02 68.9035 95.604H72.2995C72.2835 95.012 72.1355 94.56 71.8555 94.248C71.5755 93.928 71.1835 93.768 70.6795 93.768ZM79.7676 90.54V99H78.7956V97.932C78.6196 98.3 78.3596 98.584 78.0156 98.784C77.6796 98.984 77.2836 99.084 76.8276 99.084C76.3156 99.084 75.8636 98.956 75.4716 98.7C75.0796 98.444 74.7756 98.088 74.5596 97.632C74.3436 97.168 74.2356 96.632 74.2356 96.024C74.2356 95.424 74.3436 94.896 74.5596 94.44C74.7756 93.984 75.0796 93.632 75.4716 93.384C75.8636 93.136 76.3156 93.012 76.8276 93.012C77.2836 93.012 77.6796 93.112 78.0156 93.312C78.3596 93.512 78.6196 93.796 78.7956 94.164V90.54H79.7676ZM77.0196 98.28C77.5876 98.28 78.0236 98.088 78.3276 97.704C78.6396 97.312 78.7956 96.76 78.7956 96.048C78.7956 95.336 78.6396 94.788 78.3276 94.404C78.0236 94.02 77.5876 93.828 77.0196 93.828C76.4516 93.828 76.0076 94.02 75.6876 94.404C75.3756 94.788 75.2196 95.328 75.2196 96.024C75.2196 96.736 75.3756 97.292 75.6876 97.692C76.0076 98.084 76.4516 98.28 77.0196 98.28Z" fill="#525252"/>
<line x1="6.5" y1="12" x2="6.49998" y2="361" stroke="#BCBCBC"/>
<circle cx="5" cy="9" r="5" fill="#FFA370"/>
<circle cx="5" cy="62" r="5" fill="#C4C4C4"/>
<path d="M29.336 127.444C30.384 127.444 31.188 127.804 31.748 128.524C32.316 129.236 32.6 130.256 32.6 131.584C32.6 132.528 32.464 133.34 32.192 134.02C31.928 134.692 31.544 135.208 31.04 135.568C30.544 135.92 29.944 136.096 29.24 136.096C28.744 136.096 28.26 136.008 27.788 135.832C27.324 135.656 26.916 135.404 26.564 135.076L26.996 134.164C27.764 134.78 28.5 135.088 29.204 135.088C29.892 135.088 30.424 134.788 30.8 134.188C31.176 133.58 31.364 132.72 31.364 131.608V131.584C31.188 131.992 30.9 132.316 30.5 132.556C30.108 132.788 29.664 132.904 29.168 132.904C28.664 132.904 28.212 132.792 27.812 132.568C27.412 132.336 27.1 132.016 26.876 131.608C26.66 131.2 26.552 130.732 26.552 130.204C26.552 129.676 26.672 129.204 26.912 128.788C27.152 128.364 27.48 128.036 27.896 127.804C28.32 127.564 28.8 127.444 29.336 127.444ZM29.396 131.896C29.9 131.896 30.308 131.74 30.62 131.428C30.94 131.108 31.1 130.692 31.1 130.18C31.1 129.66 30.944 129.244 30.632 128.932C30.32 128.612 29.908 128.452 29.396 128.452C28.9 128.452 28.5 128.612 28.196 128.932C27.9 129.244 27.752 129.66 27.752 130.18C27.752 130.692 27.9 131.108 28.196 131.428C28.5 131.74 28.9 131.896 29.396 131.896ZM34.0353 133.288V132.316H37.5033V133.288H34.0353ZM37.9277 135.076L38.6957 135.028C39.0797 134.996 39.3717 134.868 39.5717 134.644C39.7717 134.412 39.8717 134.092 39.8717 133.684V127.54H41.1197V133.696C41.1197 134.416 40.9277 134.976 40.5437 135.376C40.1677 135.776 39.6157 135.996 38.8877 136.036L38.0117 136.096L37.9277 135.076ZM45.3896 130C46.1736 130 46.7536 130.196 47.1296 130.588C47.5136 130.98 47.7056 131.576 47.7056 132.376V136H46.5416V135.028C46.3896 135.372 46.1616 135.636 45.8576 135.82C45.5616 135.996 45.2136 136.084 44.8136 136.084C44.4296 136.084 44.0776 136.008 43.7576 135.856C43.4376 135.696 43.1856 135.476 43.0016 135.196C42.8256 134.916 42.7376 134.604 42.7376 134.26C42.7376 133.836 42.8456 133.504 43.0616 133.264C43.2856 133.016 43.6496 132.84 44.1536 132.736C44.6656 132.632 45.3656 132.58 46.2536 132.58H46.5296V132.232C46.5296 131.784 46.4336 131.46 46.2416 131.26C46.0576 131.06 45.7536 130.96 45.3296 130.96C44.6656 130.96 44.0016 131.164 43.3376 131.572L42.9776 130.72C43.2896 130.504 43.6656 130.332 44.1056 130.204C44.5536 130.068 44.9816 130 45.3896 130ZM45.0296 135.184C45.4696 135.184 45.8296 135.036 46.1096 134.74C46.3896 134.436 46.5296 134.048 46.5296 133.576V133.264H46.3136C45.6896 133.264 45.2096 133.292 44.8736 133.348C44.5376 133.404 44.2976 133.5 44.1536 133.636C44.0096 133.764 43.9376 133.952 43.9376 134.2C43.9376 134.48 44.0376 134.716 44.2376 134.908C44.4456 135.092 44.7096 135.184 45.0296 135.184ZM52.5194 130C53.9194 130 54.6194 130.788 54.6194 132.364V136H53.4074V132.424C53.4074 131.928 53.3074 131.564 53.1074 131.332C52.9154 131.1 52.6114 130.984 52.1954 130.984C51.7074 130.984 51.3154 131.136 51.0194 131.44C50.7234 131.744 50.5754 132.152 50.5754 132.664V136H49.3634V130.144H50.5514V131.08C50.7434 130.728 51.0114 130.46 51.3554 130.276C51.6994 130.092 52.0874 130 52.5194 130ZM56.2775 133.288V132.316H59.7455V133.288H56.2775ZM67.086 134.98V136H61.542V135.076L64.458 131.884C64.834 131.476 65.106 131.104 65.274 130.768C65.442 130.432 65.526 130.1 65.526 129.772C65.526 129.34 65.402 129.012 65.154 128.788C64.906 128.564 64.55 128.452 64.086 128.452C63.294 128.452 62.51 128.76 61.734 129.376L61.302 128.464C61.638 128.152 62.062 127.904 62.574 127.72C63.086 127.536 63.602 127.444 64.122 127.444C64.93 127.444 65.57 127.648 66.042 128.056C66.514 128.456 66.75 129 66.75 129.688C66.75 130.176 66.642 130.64 66.426 131.08C66.218 131.52 65.866 132.012 65.37 132.556L63.102 134.98H67.086ZM71.3773 136.096C70.3933 136.096 69.6413 135.728 69.1213 134.992C68.6093 134.256 68.3533 133.184 68.3533 131.776C68.3533 130.368 68.6093 129.296 69.1213 128.56C69.6413 127.816 70.3933 127.444 71.3773 127.444C72.3613 127.444 73.1093 127.812 73.6213 128.548C74.1413 129.284 74.4013 130.356 74.4013 131.764C74.4013 133.18 74.1413 134.256 73.6213 134.992C73.1093 135.728 72.3613 136.096 71.3773 136.096ZM71.3773 135.1C71.9933 135.1 72.4453 134.832 72.7333 134.296C73.0213 133.76 73.1653 132.916 73.1653 131.764C73.1653 130.62 73.0213 129.784 72.7333 129.256C72.4453 128.72 71.9933 128.452 71.3773 128.452C70.7613 128.452 70.3093 128.72 70.0213 129.256C69.7333 129.784 69.5893 130.62 69.5893 131.764C69.5893 132.908 69.7333 133.752 70.0213 134.296C70.3093 134.832 70.7613 135.1 71.3773 135.1ZM79.5327 134.98H81.3927V136H76.4487V134.98H78.2967V129.016L76.8207 129.916L76.2927 128.992L78.6447 127.54H79.5327V134.98ZM87.304 131.656C87.8 131.8 88.184 132.056 88.456 132.424C88.728 132.792 88.864 133.232 88.864 133.744C88.864 134.48 88.592 135.056 88.048 135.472C87.512 135.88 86.752 136.084 85.768 136.084C84.784 136.084 84.02 135.88 83.476 135.472C82.94 135.056 82.672 134.48 82.672 133.744C82.672 133.224 82.808 132.78 83.08 132.412C83.36 132.044 83.748 131.792 84.244 131.656C83.82 131.496 83.484 131.244 83.236 130.9C82.996 130.556 82.876 130.156 82.876 129.7C82.876 129.004 83.132 128.456 83.644 128.056C84.156 127.648 84.864 127.444 85.768 127.444C86.672 127.444 87.38 127.648 87.892 128.056C88.404 128.456 88.66 129.004 88.66 129.7C88.66 130.156 88.536 130.56 88.288 130.912C88.048 131.256 87.72 131.504 87.304 131.656ZM85.768 128.44C85.208 128.44 84.784 128.56 84.496 128.8C84.208 129.032 84.064 129.368 84.064 129.808C84.064 130.264 84.208 130.612 84.496 130.852C84.784 131.092 85.208 131.212 85.768 131.212C86.328 131.212 86.752 131.092 87.04 130.852C87.328 130.612 87.472 130.264 87.472 129.808C87.472 129.368 87.328 129.032 87.04 128.8C86.752 128.56 86.328 128.44 85.768 128.44ZM85.768 135.088C87.04 135.088 87.676 134.612 87.676 133.66C87.676 132.7 87.04 132.22 85.768 132.22C84.496 132.22 83.86 132.7 83.86 133.66C83.86 134.612 84.496 135.088 85.768 135.088Z" fill="#BFBFBF"/>
<path d="M30.704 152.096C29.888 152.096 29.176 151.92 28.568 151.568C27.968 151.216 27.504 150.716 27.176 150.068C26.856 149.412 26.696 148.644 26.696 147.764C26.696 146.884 26.856 146.12 27.176 145.472C27.504 144.816 27.968 144.316 28.568 143.972C29.176 143.62 29.888 143.444 30.704 143.444C31.28 143.444 31.816 143.536 32.312 143.72C32.808 143.896 33.228 144.152 33.572 144.488L33.14 145.4C32.748 145.072 32.356 144.836 31.964 144.692C31.58 144.548 31.164 144.476 30.716 144.476C29.836 144.476 29.156 144.76 28.676 145.328C28.204 145.896 27.968 146.708 27.968 147.764C27.968 148.82 28.204 149.636 28.676 150.212C29.156 150.78 29.836 151.064 30.716 151.064C31.164 151.064 31.58 150.992 31.964 150.848C32.356 150.704 32.748 150.468 33.14 150.14L33.572 151.052C33.228 151.388 32.808 151.648 32.312 151.832C31.816 152.008 31.28 152.096 30.704 152.096ZM37.3879 152.084C36.8119 152.084 36.3039 151.96 35.8639 151.712C35.4319 151.464 35.0959 151.112 34.8559 150.656C34.6239 150.192 34.5079 149.656 34.5079 149.048C34.5079 148.432 34.6239 147.896 34.8559 147.44C35.0959 146.976 35.4319 146.62 35.8639 146.372C36.3039 146.124 36.8119 146 37.3879 146C37.9639 146 38.4679 146.124 38.8999 146.372C39.3399 146.62 39.6759 146.976 39.9079 147.44C40.1479 147.896 40.2679 148.432 40.2679 149.048C40.2679 149.656 40.1479 150.192 39.9079 150.656C39.6759 151.112 39.3399 151.464 38.8999 151.712C38.4679 151.96 37.9639 152.084 37.3879 152.084ZM37.3879 151.124C37.9239 151.124 38.3319 150.948 38.6119 150.596C38.8999 150.244 39.0439 149.728 39.0439 149.048C39.0439 148.376 38.8999 147.864 38.6119 147.512C38.3239 147.152 37.9159 146.972 37.3879 146.972C36.8599 146.972 36.4519 147.152 36.1639 147.512C35.8759 147.864 35.7319 148.376 35.7319 149.048C35.7319 149.728 35.8719 150.244 36.1519 150.596C36.4399 150.948 36.8519 151.124 37.3879 151.124ZM48.3373 146C49.6493 146 50.3053 146.788 50.3053 148.364V152H49.0933V148.412C49.0933 147.916 49.0053 147.556 48.8293 147.332C48.6613 147.1 48.3853 146.984 48.0013 146.984C47.5613 146.984 47.2133 147.136 46.9573 147.44C46.7013 147.744 46.5733 148.16 46.5733 148.688V152H45.3613V148.412C45.3613 147.916 45.2733 147.556 45.0973 147.332C44.9213 147.1 44.6453 146.984 44.2693 146.984C43.8213 146.984 43.4693 147.136 43.2133 147.44C42.9573 147.744 42.8293 148.16 42.8293 148.688V152H41.6173V146.144H42.8053V147.032C42.9893 146.704 43.2373 146.452 43.5493 146.276C43.8613 146.092 44.2173 146 44.6173 146C45.5213 146 46.1093 146.376 46.3813 147.128C46.5653 146.776 46.8293 146.5 47.1733 146.3C47.5173 146.1 47.9053 146 48.3373 146ZM55.109 146C55.613 146 56.061 146.128 56.453 146.384C56.853 146.64 57.161 147 57.377 147.464C57.601 147.928 57.713 148.464 57.713 149.072C57.713 149.672 57.605 150.2 57.389 150.656C57.173 151.112 56.865 151.464 56.465 151.712C56.073 151.96 55.621 152.084 55.109 152.084C54.669 152.084 54.281 151.992 53.945 151.808C53.609 151.616 53.353 151.344 53.177 150.992V154.16H51.965V146.144H53.177V147.104C53.353 146.752 53.609 146.48 53.945 146.288C54.281 146.096 54.669 146 55.109 146ZM54.821 151.124C55.349 151.124 55.757 150.948 56.045 150.596C56.333 150.236 56.477 149.728 56.477 149.072C56.477 148.408 56.329 147.892 56.033 147.524C55.745 147.156 55.341 146.972 54.821 146.972C54.293 146.972 53.885 147.152 53.597 147.512C53.317 147.872 53.177 148.384 53.177 149.048C53.177 149.712 53.317 150.224 53.597 150.584C53.885 150.944 54.293 151.124 54.821 151.124ZM59.0548 152V143.54H60.2668V152H59.0548ZM64.4091 146C65.1931 146 65.7731 146.196 66.1491 146.588C66.5331 146.98 66.7251 147.576 66.7251 148.376V152H65.5611V151.028C65.4091 151.372 65.1811 151.636 64.8771 151.82C64.5811 151.996 64.2331 152.084 63.8331 152.084C63.4491 152.084 63.0971 152.008 62.7771 151.856C62.4571 151.696 62.2051 151.476 62.0211 151.196C61.8451 150.916 61.7571 150.604 61.7571 150.26C61.7571 149.836 61.8651 149.504 62.0811 149.264C62.3051 149.016 62.6691 148.84 63.1731 148.736C63.6851 148.632 64.3851 148.58 65.2731 148.58H65.5491V148.232C65.5491 147.784 65.4531 147.46 65.2611 147.26C65.0771 147.06 64.7731 146.96 64.3491 146.96C63.6851 146.96 63.0211 147.164 62.3571 147.572L61.9971 146.72C62.3091 146.504 62.6851 146.332 63.1251 146.204C63.5731 146.068 64.0011 146 64.4091 146ZM64.0491 151.184C64.4891 151.184 64.8491 151.036 65.1291 150.74C65.4091 150.436 65.5491 150.048 65.5491 149.576V149.264H65.3331C64.7091 149.264 64.2291 149.292 63.8931 149.348C63.5571 149.404 63.3171 149.5 63.1731 149.636C63.0291 149.764 62.9571 149.952 62.9571 150.2C62.9571 150.48 63.0571 150.716 63.2571 150.908C63.4651 151.092 63.7291 151.184 64.0491 151.184ZM68.383 152V146.144H69.595V152H68.383ZM68.299 143.528H69.691V144.788H68.299V143.528ZM74.4452 146C75.8452 146 76.5452 146.788 76.5452 148.364V152H75.3332V148.424C75.3332 147.928 75.2332 147.564 75.0332 147.332C74.8412 147.1 74.5372 146.984 74.1212 146.984C73.6332 146.984 73.2412 147.136 72.9452 147.44C72.6492 147.744 72.5012 148.152 72.5012 148.664V152H71.2892V146.144H72.4772V147.08C72.6692 146.728 72.9372 146.46 73.2812 146.276C73.6252 146.092 74.0132 146 74.4452 146ZM83.9353 152.084C83.3433 152.084 82.8273 151.96 82.3873 151.712C81.9553 151.464 81.6193 151.116 81.3793 150.668C81.1473 150.212 81.0313 149.68 81.0313 149.072C81.0313 148.464 81.1513 147.928 81.3913 147.464C81.6393 147 81.9833 146.64 82.4233 146.384C82.8713 146.128 83.3913 146 83.9833 146C84.3913 146 84.7833 146.068 85.1593 146.204C85.5433 146.34 85.8553 146.524 86.0953 146.756L85.7233 147.62C85.1953 147.188 84.6473 146.972 84.0793 146.972C83.5193 146.972 83.0793 147.156 82.7593 147.524C82.4473 147.884 82.2913 148.396 82.2913 149.06C82.2913 149.716 82.4473 150.224 82.7593 150.584C83.0713 150.936 83.5113 151.112 84.0793 151.112C84.6473 151.112 85.1953 150.896 85.7233 150.464L86.0953 151.34C85.8393 151.572 85.5193 151.756 85.1353 151.892C84.7513 152.02 84.3513 152.084 83.9353 152.084ZM90.7321 147.02L90.0001 147.092C89.4241 147.148 89.0081 147.324 88.7521 147.62C88.5041 147.916 88.3801 148.292 88.3801 148.748V152H87.1681V146.144H88.3441V147.164C88.6561 146.476 89.2921 146.096 90.2521 146.024L90.6481 146L90.7321 147.02ZM96.4615 149.276H92.3215C92.4095 150.516 93.0255 151.136 94.1695 151.136C94.8415 151.136 95.4495 150.916 95.9935 150.476L96.3655 151.328C96.0935 151.56 95.7575 151.744 95.3575 151.88C94.9575 152.016 94.5495 152.084 94.1335 152.084C93.1975 152.084 92.4575 151.816 91.9135 151.28C91.3775 150.744 91.1095 150.004 91.1095 149.06C91.1095 148.46 91.2255 147.928 91.4575 147.464C91.6975 147 92.0295 146.64 92.4535 146.384C92.8855 146.128 93.3735 146 93.9175 146C94.7095 146 95.3295 146.256 95.7775 146.768C96.2335 147.28 96.4615 147.988 96.4615 148.892V149.276ZM93.9415 146.888C93.4775 146.888 93.1055 147.036 92.8255 147.332C92.5535 147.62 92.3895 148.036 92.3335 148.58H95.4175C95.3935 148.036 95.2535 147.62 94.9975 147.332C94.7495 147.036 94.3975 146.888 93.9415 146.888ZM100.245 146C101.029 146 101.609 146.196 101.985 146.588C102.369 146.98 102.561 147.576 102.561 148.376V152H101.397V151.028C101.245 151.372 101.017 151.636 100.713 151.82C100.417 151.996 100.069 152.084 99.669 152.084C99.285 152.084 98.933 152.008 98.613 151.856C98.293 151.696 98.041 151.476 97.857 151.196C97.681 150.916 97.593 150.604 97.593 150.26C97.593 149.836 97.701 149.504 97.917 149.264C98.141 149.016 98.505 148.84 99.009 148.736C99.521 148.632 100.221 148.58 101.109 148.58H101.385V148.232C101.385 147.784 101.289 147.46 101.097 147.26C100.913 147.06 100.609 146.96 100.185 146.96C99.521 146.96 98.857 147.164 98.193 147.572L97.833 146.72C98.145 146.504 98.521 146.332 98.961 146.204C99.409 146.068 99.837 146 100.245 146ZM99.885 151.184C100.325 151.184 100.685 151.036 100.965 150.74C101.245 150.436 101.385 150.048 101.385 149.576V149.264H101.169C100.545 149.264 100.065 149.292 99.729 149.348C99.393 149.404 99.153 149.5 99.009 149.636C98.865 149.764 98.793 149.952 98.793 150.2C98.793 150.48 98.893 150.716 99.093 150.908C99.301 151.092 99.565 151.184 99.885 151.184ZM106.991 151.148C107.175 151.148 107.355 151.136 107.531 151.112L107.471 152.036C107.271 152.068 107.063 152.084 106.847 152.084C106.087 152.084 105.519 151.9 105.143 151.532C104.775 151.156 104.591 150.616 104.591 149.912V147.08H103.451V146.144H104.591V144.38H105.803V146.144H107.411V147.08H105.803V149.864C105.803 150.72 106.199 151.148 106.991 151.148ZM113.465 149.276H109.325C109.413 150.516 110.029 151.136 111.173 151.136C111.845 151.136 112.453 150.916 112.997 150.476L113.369 151.328C113.097 151.56 112.761 151.744 112.361 151.88C111.961 152.016 111.553 152.084 111.137 152.084C110.201 152.084 109.461 151.816 108.917 151.28C108.381 150.744 108.113 150.004 108.113 149.06C108.113 148.46 108.229 147.928 108.461 147.464C108.701 147 109.033 146.64 109.457 146.384C109.889 146.128 110.377 146 110.921 146C111.713 146 112.333 146.256 112.781 146.768C113.237 147.28 113.465 147.988 113.465 148.892V149.276ZM110.945 146.888C110.481 146.888 110.109 147.036 109.829 147.332C109.557 147.62 109.393 148.036 109.337 148.58H112.421C112.397 148.036 112.257 147.62 112.001 147.332C111.753 147.036 111.401 146.888 110.945 146.888ZM120.201 143.54V152H119.001V150.992C118.825 151.344 118.569 151.616 118.233 151.808C117.897 151.992 117.509 152.084 117.069 152.084C116.565 152.084 116.113 151.956 115.713 151.7C115.321 151.444 115.013 151.084 114.789 150.62C114.573 150.156 114.465 149.624 114.465 149.024C114.465 148.416 114.573 147.884 114.789 147.428C115.013 146.972 115.321 146.62 115.713 146.372C116.105 146.124 116.557 146 117.069 146C117.509 146 117.893 146.096 118.221 146.288C118.557 146.472 118.813 146.736 118.989 147.08V143.54H120.201ZM117.357 151.124C117.885 151.124 118.289 150.944 118.569 150.584C118.857 150.224 119.001 149.712 119.001 149.048C119.001 148.384 118.857 147.872 118.569 147.512C118.289 147.152 117.885 146.972 117.357 146.972C116.829 146.972 116.417 147.152 116.121 147.512C115.833 147.864 115.689 148.368 115.689 149.024C115.689 149.68 115.837 150.196 116.133 150.572C116.429 150.94 116.837 151.124 117.357 151.124Z" fill="#525252"/>
<circle cx="5" cy="131" r="5" fill="#C4C4C4"/>
</svg>
