<svg width="37" height="37" viewBox="0 0 37 37" fill="none" xmlns="http://www.w3.org/2000/svg">
<g filter="url(#filter0_d)">
<circle cx="18.5" cy="16.5" r="12.5" fill="#FFA370"/>
<path d="M24.5508 13.9062C25.0977 13.4961 25.5898 13.0039 26 12.4023C25.4531 12.6484 24.9062 12.8125 24.3594 12.8672C24.9609 12.4844 25.3984 11.9648 25.6172 11.2812C25.043 11.6094 24.4414 11.8555 23.7852 11.9648C23.5117 11.6914 23.1836 11.4727 22.8281 11.3086C22.4727 11.1445 22.0898 11.0625 21.6797 11.0625C21.1602 11.0625 20.6953 11.1992 20.2578 11.4453C19.8203 11.7188 19.4648 12.0742 19.2188 12.5117C18.9453 12.9492 18.8359 13.4414 18.8359 13.9336C18.8359 14.1523 18.8359 14.3711 18.8906 14.5898C17.7148 14.5352 16.6211 14.2617 15.582 13.7148C14.543 13.1953 13.6953 12.4844 12.9844 11.582C12.7109 12.0469 12.5742 12.5391 12.5742 13.0312C12.5742 13.5234 12.6836 13.9883 12.9297 14.3984C13.1484 14.8359 13.4766 15.1641 13.8594 15.4375C13.3945 15.4375 12.957 15.3008 12.5742 15.0547V15.1094C12.5742 15.793 12.793 16.3945 13.2305 16.9141C13.668 17.4609 14.2148 17.7891 14.8711 17.9258C14.5977 17.9805 14.3516 18.0078 14.1055 18.0078C13.9414 18.0078 13.75 18.0078 13.5859 17.9805C13.75 18.5547 14.0781 19.0195 14.5703 19.4023C15.0625 19.7852 15.6094 19.9492 16.2656 19.9492C15.1992 20.7695 13.9961 21.1797 12.6836 21.1797C12.4102 21.1797 12.1914 21.1797 12 21.1523C13.3125 22.0273 14.7891 22.4375 16.4023 22.4375C18.0703 22.4375 19.5469 22.0273 20.8594 21.1523C22.0352 20.3867 22.9648 19.375 23.6211 18.0625C24.25 16.8594 24.5781 15.5742 24.5781 14.2617C24.5781 14.0977 24.5508 13.9883 24.5508 13.9062Z" fill="white"/>
</g>
<defs>
<filter id="filter0_d" x="0" y="0" width="37" height="37" filterUnits="userSpaceOnUse" color-interpolation-filters="sRGB">
<feFlood flood-opacity="0" result="BackgroundImageFix"/>
<feColorMatrix in="SourceAlpha" type="matrix" values="0 0 0 0 0 0 0 0 0 0 0 0 0 0 0 0 0 0 127 0"/>
<feOffset dy="2"/>
<feGaussianBlur stdDeviation="3"/>
<feColorMatrix type="matrix" values="0 0 0 0 0 0 0 0 0 0 0 0 0 0 0 0 0 0 0.25 0"/>
<feBlend mode="normal" in2="BackgroundImageFix" result="effect1_dropShadow"/>
<feBlend mode="normal" in="SourceGraphic" in2="effect1_dropShadow" result="shape"/>
</filter>
</defs>
</svg>
